<svg id="Livello_1" data-name="Livello 1" xmlns="http://www.w3.org/2000/svg" viewBox="0 0 546.6 546.6"><defs><style>.cls-1{fill:#c69c6d;}.cls-2{fill:blue;}</style></defs><title>partner-logo</title><circle class="cls-1" cx="273.3" cy="273.3" r="273.3"/><path class="cls-2" d="M124.26,195q0-7.43-3.69-12.22a11.76,11.76,0,0,0-9.81-4.79,15.33,15.33,0,0,0-3.69.51,19.89,19.89,0,0,1-2.32.51l-0.45-.11a2.77,2.77,0,0,1-1-1.64,13.79,13.79,0,0,0-4.65-7.09q-10.89-8.79-10.89-23.36,0-11.74,7.68-18.09t21.29-6.35a23,23,0,0,1,10.46,2.27,33.1,33.1,0,0,1,6.95,4.42,16.42,16.42,0,0,1,5.5,12.81,24.91,24.91,0,0,1-1.36,7,29.06,29.06,0,0,0-1.36,5.27,9.62,9.62,0,0,0,2.84,6.52,9.57,9.57,0,0,0-2.89-.34,7,7,0,0,1-3.54-1,7.87,7.87,0,0,1-2.64-2.38,18.92,18.92,0,0,1-2.78-6.07q-0.4.62-2.89,1.28a17.22,17.22,0,0,1-4.22.65,8.73,8.73,0,0,1-3-.48,5.92,5.92,0,0,1-1.9-1A3.19,3.19,0,0,1,115,150a4.56,4.56,0,0,1-.4-1.7,12.56,12.56,0,0,0,6.15-1.81,5.78,5.78,0,0,0,2.64-5.3,7.43,7.43,0,0,0-2.18-5.7,7,7,0,0,0-4.9-2q-8.9,0-8.9,10.66,0,9,4.59,13.44a7,7,0,0,0,4.88,2.32,19.26,19.26,0,0,0,5.22-.77,22.5,22.5,0,0,1,3.15-.77q0.43,0,.94,1.47,1.76,5,4.37,6.8a30.33,30.33,0,0,1,9.81,10.49,29,29,0,0,1,1.08,26,22.77,22.77,0,0,1-6.75,8.17,32.56,32.56,0,0,1-20,6.41,29.3,29.3,0,0,1-18-5.56A19.75,19.75,0,0,1,90.89,205a18.39,18.39,0,0,1-2.18-8.25,24.73,24.73,0,0,1,1.5-8.19,21.85,21.85,0,0,0,1.5-6.63,8.48,8.48,0,0,0-1.93-5,3.54,3.54,0,0,1,2.1-.57q3.52,0,6.21,3.49a11.89,11.89,0,0,1,2.75,7.12,14.39,14.39,0,0,1,6.52-2,11.94,11.94,0,0,1,4.14.54,4,4,0,0,1,1.93,1.39,4.43,4.43,0,0,1,1,2.49v0.45a9.87,9.87,0,0,0-5.76,2.75,7.91,7.91,0,0,0-2.47,6,6.31,6.31,0,0,0,2.32,5.39,9.46,9.46,0,0,0,5.87,1.76A10.23,10.23,0,0,0,124.26,195Z"/><path class="cls-2" d="M171.77,212.22a47.54,47.54,0,0,0,6.92,21.21q0,2-3.18,2.95a10.94,10.94,0,0,1-3.32.4,8.25,8.25,0,0,1-4.45-1.5,12.68,12.68,0,0,1-3.4-3l-1-1.47a11.13,11.13,0,0,1-1.39,1.84,12.86,12.86,0,0,1-2.13,2,8.74,8.74,0,0,1-5.1,2.1,14,14,0,0,1-3.54-.34,4.47,4.47,0,0,1-1.79-.85,3.74,3.74,0,0,1-1.36-2.15A27.22,27.22,0,0,0,153.37,223q1.5-5.7,1.5-16V192.6q0-6.35-1.16-8.82a18.45,18.45,0,0,0-2-3.52,7.47,7.47,0,0,0-1.53-1.5,5.07,5.07,0,0,1-1.64-1.3,1.14,1.14,0,0,1,.62-0.62,11.08,11.08,0,0,0,1.53-1.25,12,12,0,0,0,1.81-2.27q2.15-3.29,2.38-10.15-0.06-8.34-1.56-13a22.39,22.39,0,0,0-5.3-8.65q0-2,3.18-3a8.82,8.82,0,0,1,2.78-.4q5.9,0,10.89,8.56a25.81,25.81,0,0,1,8.45-6.44,21.71,21.71,0,0,1,17.55-.74,21,21,0,0,1,6.72,4.39q6.41,6.24,6.41,18.32,0,10,3.63,13.5c0.34,0.3.75,0.64,1.22,1s0.75,0.6.82,0.68a1.2,1.2,0,0,1-.6.65,10.07,10.07,0,0,0-1.42,1.3,12.92,12.92,0,0,0-1.67,2.35q-2,3.52-2,10.12a33.43,33.43,0,0,1-1.67,11.26,19.39,19.39,0,0,1-4.51,7.43,18.37,18.37,0,0,1-13.27,5.78A20.36,20.36,0,0,1,171.77,212.22Zm0.4-50q0,10.49,4.31,14.52a1.47,1.47,0,0,1,.51.74,2.27,2.27,0,0,1-.77.94,18.28,18.28,0,0,0-1.67,1.81,11.65,11.65,0,0,0-1.67,4.34,35.66,35.66,0,0,0-.77,8.05q0,13.44,7.34,13.44t7.34-13.44q0-11.06-4.42-14.52a0.93,0.93,0,0,1-.48-0.6,2.61,2.61,0,0,1,.79-0.85,7.57,7.57,0,0,0,1.33-1.47,19.85,19.85,0,0,0,1.3-2.3q1.47-3.23,1.47-10.09,0-14.57-7.48-14.57Q172.17,148.2,172.17,162.21Z"/><path class="cls-2" d="M259.27,189.59a1.74,1.74,0,0,1,1-1.59,5.85,5.85,0,0,1,2.78-.57,7.93,7.93,0,0,1,3.18.62,1.94,1.94,0,0,1,1.45,1.7q0,18.32-10.72,24.16a16.3,16.3,0,0,1-6.49,2.15q-3,.23-4.68.23-10.66,0-17.12-6.55T221,189.93q-0.68-8.28-5.9-11.57a11.56,11.56,0,0,1-1.13-.74,1.34,1.34,0,0,1,.74-0.54,12.13,12.13,0,0,0,1.76-1.13,12,12,0,0,0,2-2q2.49-3.06,2.49-9,0-27,23.65-27,11.23,0,17,7.26,5,6.24,5,18.09,0,7.37.48,9.3a11.89,11.89,0,0,0,1.3,3.29q0.82,1.36,1,1.81a6.37,6.37,0,0,1-4.82,2.55,4.27,4.27,0,0,1-1.7-.34q-4.54-2.38-12.19-2.38t-10.55,1.08q-2.33,3-2.32,10.89t2.86,12.22a9.34,9.34,0,0,0,8.31,4.34q5.44,0,7.8-4.08T259.27,189.59ZM251.1,168l0.11-7.26q0-12.59-5.61-12.59-3.86,0-5.67,2.1a7.36,7.36,0,0,0-1.47,4.62q-0.12,3-.11,8.45a23.15,23.15,0,0,0,1.19,8.36,32.65,32.65,0,0,0,8-1.22Q251.1,169.46,251.1,168Z"/><path class="cls-2" d="M325.38,172.47q-0.51,1.36-2.72,1.36a8.09,8.09,0,0,1-4.48-1.5,14,14,0,0,1-3.4-3l-1.13-1.47a8.31,8.31,0,0,1-4.54,1.42,14.84,14.84,0,0,1-3.52-.31,5.46,5.46,0,0,1-1.81-.77,4.36,4.36,0,0,1-1-1,2.41,2.41,0,0,1-.62-1.42l0.06-.28q3,0,5.47-3.6a12.35,12.35,0,0,0,2.47-6.95q0-6.75-6.58-6.75-3.52,0-4.56,1.39a13.19,13.19,0,0,0-1.47,2.32,10.37,10.37,0,0,0-.65,2.92q-0.23,2.61-.23,7.14a39.33,39.33,0,0,0,.57,7.4,13.09,13.09,0,0,0,1.42,4.22,11.39,11.39,0,0,0,1.67,2.15,12,12,0,0,0,1.39,1.19,1.06,1.06,0,0,1,.57.68,1,1,0,0,1-.57.65,12.19,12.19,0,0,0-1.39,1.11,10.29,10.29,0,0,0-1.67,2q-2,3.06-2,10.21t2.69,10.75A9,9,0,0,0,307,206q5.39,0,7.71-4t2.38-12.3a1.75,1.75,0,0,1,1.22-1.59,7.27,7.27,0,0,1,3.06-.57,8.23,8.23,0,0,1,3.29.62,1.94,1.94,0,0,1,1.45,1.7q0,13.78-6.41,20.58-5.5,5.84-14.35,5.84-22.57,0-25.63-23.87-0.91-7.43-2.24-9.72a26.15,26.15,0,0,0-2-3.12,11.09,11.09,0,0,0-1.13-1.22,1,1,0,0,1-.45-0.68v-0.11a1.06,1.06,0,0,1,.57-0.68,12.42,12.42,0,0,0,1.42-1.22,9.67,9.67,0,0,0,1.64-2.24q2-3.29,2-10.72,0.28-11.68,6.75-18.2T303.44,138a26.89,26.89,0,0,1,13.84,4.2,16.6,16.6,0,0,1,5.7,5.64,13.18,13.18,0,0,1,2.24,6.95,36.65,36.65,0,0,1-.79,7.26,32.46,32.46,0,0,0-.79,5.81A9,9,0,0,0,325.38,172.47Z"/><path class="cls-2" d="M337.52,138.05a10.69,10.69,0,0,1,8.51,4.37,10.56,10.56,0,0,1,5.61-3.91,9.43,9.43,0,0,1,2.89-.45,9.27,9.27,0,0,1,2.55.31,4.13,4.13,0,0,1,1.59.77,3.23,3.23,0,0,1,1.3,2,19,19,0,0,0-4.9,7.26,30.83,30.83,0,0,0-1.33,10,64.85,64.85,0,0,0,.57,9.72,17,17,0,0,0,1.42,5.1,9.83,9.83,0,0,0,1.67,2.35,15.38,15.38,0,0,0,1.39,1.22,0.92,0.92,0,0,1,0,1.7,10.7,10.7,0,0,0-1.39,1.33,13.2,13.2,0,0,0-1.67,2.44q-2,3.57-2,11.28t1.36,11.6a17.17,17.17,0,0,0,4.88,7.06q0,1.81-2.89,2.72a10.41,10.41,0,0,1-3,.34,8.8,8.8,0,0,1-4.05-1.11,10.05,10.05,0,0,1-3-2.18l-1-1.08a10.29,10.29,0,0,1-5.61,3.86,9.69,9.69,0,0,1-3.29.51,6.49,6.49,0,0,1-3.23-.77,3.05,3.05,0,0,1-1.59-1.56l-0.23-.74A17.17,17.17,0,0,0,337,205.1a28.72,28.72,0,0,0,1.36-9.44,52.31,52.31,0,0,0-.57-8.73,16.65,16.65,0,0,0-1.39-4.71,11.58,11.58,0,0,0-1.67-2.44,11.91,11.91,0,0,0-1.42-1.33,0.92,0.92,0,0,1,0-1.7,18,18,0,0,0,1.42-1.22,8.56,8.56,0,0,0,1.64-2.32q2-3.74,2-12.36T337,148.43a19.42,19.42,0,0,0-4.9-7.31q0-1.81,2.89-2.72A8.51,8.51,0,0,1,337.52,138.05Zm8.39-25.18,11.91,10.43-12,10.77-3-2.61q-3-2.55-6-5.16l-3-2.61q0-.34,5.76-5.59T345.91,112.87Z"/><path class="cls-2" d="M405.11,206.26a11.9,11.9,0,0,1-6.18,8,18.64,18.64,0,0,1-4.37,1.56,27.8,27.8,0,0,1-5.73.48,20.63,20.63,0,0,1-7.37-1.47,15.59,15.59,0,0,1-4.22-2.38,14.51,14.51,0,0,1-3.37-4.11,18.61,18.61,0,0,1-2.15-6,16.5,16.5,0,0,0-3.8-7.23,4.34,4.34,0,0,1-1-1.47,12.55,12.55,0,0,1,2-2.58,10.5,10.5,0,0,0,2.52-4.68q1.64-7.65,7.48-10.77a31.48,31.48,0,0,1,5.5-2.38q2.95-1,5.7-1.76a31.17,31.17,0,0,0,5-1.9,8.82,8.82,0,0,0,3.63-3.23,11.66,11.66,0,0,0,1.36-6.24q0-4.11-.28-7.63a12.7,12.7,0,0,0-.6-3.29,12.08,12.08,0,0,0-1.11-2.21,3.64,3.64,0,0,0-1.76-1.5,8.45,8.45,0,0,0-3-.43,4.29,4.29,0,0,0-3.35,1.64,6.12,6.12,0,0,0-1.42,4.14,14.33,14.33,0,0,0,1.73,6,7.27,7.27,0,0,0,4.73,4.28q-1.53,3.63-5.07,3.63a10.47,10.47,0,0,1-6.55-2.32q0.28,0.28-1.25,2.78a17.06,17.06,0,0,1-1.64,2.27,8.12,8.12,0,0,1-2.49,1.93,6.7,6.7,0,0,1-3.12.79,2.74,2.74,0,0,1-2.27-.85q2.95-2.95,2.95-5.56a22.23,22.23,0,0,0-.79-4.11A21.32,21.32,0,0,1,374,155a13.66,13.66,0,0,1,5.27-11.17,31.87,31.87,0,0,1,6.46-3.91,21.78,21.78,0,0,1,9.53-2q22.62,0,22.62,24.72a24.25,24.25,0,0,0,2.27,10.66q1.08,2.16,4.76,4.31a1.31,1.31,0,0,1-.65.68,12.06,12.06,0,0,0-1.62,1.45,15.39,15.39,0,0,0-1.93,2.52,14.46,14.46,0,0,0-1.62,4.42,41.47,41.47,0,0,0-.65,8.51A29.84,29.84,0,0,0,420,205a20,20,0,0,0,4.31,7.23,5.17,5.17,0,0,1-2.15,1.87,9.85,9.85,0,0,1-2.24.71,16,16,0,0,1-3.35.31,8.5,8.5,0,0,1-3.83-1A16.88,16.88,0,0,1,405.11,206.26ZM387.7,194.53q0,12.76,5.39,12.76a5.64,5.64,0,0,0,3.4-.85,10.76,10.76,0,0,0,1.19-.91,3.57,3.57,0,0,0,.88-1.42q0.37-1,1-2.44t0.6-9.58v-9.81q0-8.68.06-8.68a42,42,0,0,1-4.71,4,27.05,27.05,0,0,0-5.16,4.93q-2.61,3.35-2.61,10.77v1.25Z"/><path class="cls-2" d="M453.36,215.22a10.16,10.16,0,0,1-8.45-3.8,8.93,8.93,0,0,1-5.39,3.4,11.54,11.54,0,0,1-3,.4,9.51,9.51,0,0,1-2.61-.31,4.77,4.77,0,0,1-1.64-.77,3.29,3.29,0,0,1-1.25-2q4.08-2.21,5-5a22.15,22.15,0,0,0,1.11-6.49q0.09-3.43.09-7.06a37.29,37.29,0,0,0-.57-6.72,16.52,16.52,0,0,0-1.39-4.62,11.58,11.58,0,0,0-1.67-2.44,11.91,11.91,0,0,0-1.42-1.33,1.2,1.2,0,0,1-.57-1,1.91,1.91,0,0,1,.57-1.19,18.52,18.52,0,0,0,1.42-2,16.25,16.25,0,0,0,1.64-3.74q2-5.73,2-19t-1.36-19.76a31.64,31.64,0,0,0-4.88-11.6q0-1.81,2.89-2.72a8.51,8.51,0,0,1,2.55-.34q5.84,0,8.56,4.37a10.55,10.55,0,0,1,5.56-3.91,9.43,9.43,0,0,1,2.89-.45,9.27,9.27,0,0,1,2.55.31,4.13,4.13,0,0,1,1.59.77,3.23,3.23,0,0,1,1.3,2,31.64,31.64,0,0,0-4.88,11.6,79.68,79.68,0,0,0-1.36,16q0,9.53.57,14.94a37.63,37.63,0,0,0,1.42,7.83,19.1,19.1,0,0,0,1.67,3.71,16.53,16.53,0,0,0,1.39,2,1.91,1.91,0,0,1,.57,1.19,1.2,1.2,0,0,1-.57,1,10.7,10.7,0,0,0-1.39,1.33,13.2,13.2,0,0,0-1.67,2.44q-2,3.57-2,11.91,0,9.07.37,10.38t0.79,2.58a4.93,4.93,0,0,0,1.11,2,15.89,15.89,0,0,0,3.91,3.12q0,1.81-2.84,2.72A9.09,9.09,0,0,1,453.36,215.22Z"/><path class="cls-2" d="M62.75,278.85a4.8,4.8,0,0,1,3,1.58,7.64,7.64,0,0,1,2.46,5.17q0,1.86,2.32,4.64a3.77,3.77,0,0,1,.74,1.09,4,4,0,0,1-.74,1.13,9.48,9.48,0,0,0-2.32,6,7,7,0,0,1-1.9,5.1q-3.62,3.8-11.46,3.8a23.85,23.85,0,0,1-6.5-.81,8,8,0,0,1-4.54-3.23,7.54,7.54,0,0,1-1,1.25A12,12,0,0,1,41.3,306a6.21,6.21,0,0,1-3.55,1.41Q35,307.36,34,306l-0.35-.46a11,11,0,0,0,3.23-5.2,25.67,25.67,0,0,0,1-7.45,45.19,45.19,0,0,0-.39-6.68,14.42,14.42,0,0,0-.95-3.66,9.12,9.12,0,0,0-1.14-1.9,9,9,0,0,0-1-1A0.92,0.92,0,0,1,34,279a1,1,0,0,1,.39-0.69,11.39,11.39,0,0,0,1-1,8.61,8.61,0,0,0,1.14-1.88q1.34-2.85,1.34-8.93t-0.93-8.74a12.67,12.67,0,0,0-3.32-4.94q0-1.27,2-1.86a8.28,8.28,0,0,1,2.14-.21,6.3,6.3,0,0,1,3,.91,8.16,8.16,0,0,1,2.37,1.83l0.74,0.88q2.88-3.62,11-3.62a19.49,19.49,0,0,1,9.11,1.9,6.88,6.88,0,0,1,3.9,6.5,6.63,6.63,0,0,0,1.71,4.62,11.85,11.85,0,0,1,1.71,2.07,1.13,1.13,0,0,1-.47.6q-0.47.4-1,1a6.05,6.05,0,0,0-1.55,4.57,7.45,7.45,0,0,1-2.46,5.48A5,5,0,0,1,62.75,278.85Zm-4.36-13.22,0-2.07q0-6.19-4.46-6.19-2.81,0-3.67.69a9,9,0,0,0-1.23,1.13,2.5,2.5,0,0,0-.51,1.14,12.61,12.61,0,0,0-.21,2.39l0,12.9h3.45q5.91,0,6.54-7.17Q58.39,267.25,58.39,265.63Zm0.07,28.12,0-2.21q0-5.91-2.14-7.95t-6.61-2l-1.37,0q0,0.84,0,7.51t0.05,7.28a8.47,8.47,0,0,0,.33,1.58,3.23,3.23,0,0,0,.84,1.49A6.07,6.07,0,0,0,54,300.89Q58.46,300.89,58.46,293.76Z"/><path class="cls-2" d="M103.57,279.24l-0.95.32a4.3,4.3,0,0,1-4.15-3.06,5.32,5.32,0,0,1-.53-1.76v0a5.29,5.29,0,0,1-2.55.74,5.16,5.16,0,0,1-2-.32,2.83,2.83,0,0,1-1.11-.74,4.42,4.42,0,0,1-.91-2,3.18,3.18,0,0,0,.56,0,4.22,4.22,0,0,0,3.32-1.51,4.43,4.43,0,0,0,1.32-2.79,5.88,5.88,0,0,0-.26-2,3.6,3.6,0,0,0-.72-1.2,2.71,2.71,0,0,0-2-1.05,3.16,3.16,0,0,0-1.79.49,5.34,5.34,0,0,0-1.41,1.48Q89,268.09,89,272.8a17.2,17.2,0,0,0,.86,6,31.25,31.25,0,0,0,1.42,3.32q1.09,2.11,1.51,2.11l-0.7.63a11.53,11.53,0,0,0-1.27,1.42A8.68,8.68,0,0,0,89.7,289a21.64,21.64,0,0,0-.54,5.54,17.47,17.47,0,0,0,.95,6.12,12.63,12.63,0,0,0,3.45,4.82,2.68,2.68,0,0,1-1.21,1.3,4,4,0,0,1-2.16.6q-3.52,0-6.61-3.76-2.81,3.76-5.77,3.76a5.55,5.55,0,0,1-2.32-.42A2.53,2.53,0,0,1,74,305.5a13.1,13.1,0,0,0,3.45-4.85,16.49,16.49,0,0,0,1-5.92,34.31,34.31,0,0,0-.26-5,8.87,8.87,0,0,0-.77-2.62,12.43,12.43,0,0,0-.88-1.49,4.74,4.74,0,0,0-1-1l-0.63-.49a0.82,0.82,0,0,1,.37-0.37,5.91,5.91,0,0,0,.88-0.83,8.63,8.63,0,0,0,1-1.48q1.23-2.18,1.23-6.79a20.94,20.94,0,0,0-1.05-7.35,14,14,0,0,0-3.8-5.24q0.91-1.83,4.48-1.83t6.77,5.41q4.67-6.15,10.72-6.15,7.31,0,9,5.41a11.06,11.06,0,0,1,.46,3.27,15.19,15.19,0,0,1-2.57,8.05,1,1,0,0,0-.11.46,1.41,1.41,0,0,0,.07.46,3.14,3.14,0,0,0,.21.47c0.09,0.18.18,0.33,0.26,0.46l0.37,0.56Z"/><path class="cls-2" d="M129.86,301.84a7.38,7.38,0,0,1-3.83,5,11.55,11.55,0,0,1-2.71,1,17.2,17.2,0,0,1-3.55.3,12.79,12.79,0,0,1-4.57-.91,9.65,9.65,0,0,1-2.62-1.48,9,9,0,0,1-2.09-2.55,11.54,11.54,0,0,1-1.34-3.73,10.25,10.25,0,0,0-2.36-4.48,2.69,2.69,0,0,1-.63-0.91,7.78,7.78,0,0,1,1.25-1.6,6.52,6.52,0,0,0,1.56-2.9,9.29,9.29,0,0,1,4.64-6.68,19.55,19.55,0,0,1,3.41-1.48q1.83-.6,3.53-1.09a19.32,19.32,0,0,0,3.11-1.18,5.47,5.47,0,0,0,2.25-2,7.23,7.23,0,0,0,.84-3.87q0-2.55-.18-4.73a7.87,7.87,0,0,0-.37-2,7.49,7.49,0,0,0-.69-1.37,2.26,2.26,0,0,0-1.09-.93,5.25,5.25,0,0,0-1.86-.26,2.66,2.66,0,0,0-2.07,1,3.79,3.79,0,0,0-.88,2.57,8.87,8.87,0,0,0,1.07,3.74,4.5,4.5,0,0,0,2.94,2.65,3.24,3.24,0,0,1-3.15,2.25,6.49,6.49,0,0,1-4.06-1.44q0.18,0.18-.77,1.72a10.58,10.58,0,0,1-1,1.41,5,5,0,0,1-1.55,1.2,4.15,4.15,0,0,1-1.93.49,1.7,1.7,0,0,1-1.41-.53,5.13,5.13,0,0,0,1.83-3.45,13.78,13.78,0,0,0-.49-2.55,13.16,13.16,0,0,1-.49-2.9,8.47,8.47,0,0,1,3.27-6.93,19.76,19.76,0,0,1,4-2.43,13.5,13.5,0,0,1,5.91-1.23q14,0,14,15.33a15,15,0,0,0,1.41,6.61,7.27,7.27,0,0,0,3,2.67,0.82,0.82,0,0,1-.4.42,7.55,7.55,0,0,0-1,.9,9.49,9.49,0,0,0-1.2,1.56,8.91,8.91,0,0,0-1,2.74,25.71,25.71,0,0,0-.4,5.27,18.48,18.48,0,0,0,.91,6.1,12.37,12.37,0,0,0,2.67,4.48,3.21,3.21,0,0,1-1.34,1.16,6.1,6.1,0,0,1-1.39.44,9.91,9.91,0,0,1-2.07.19,5.27,5.27,0,0,1-2.37-.6A10.46,10.46,0,0,1,129.86,301.84Zm-10.79-7.28q0,7.91,3.34,7.91a3.5,3.5,0,0,0,2.11-.53,6.61,6.61,0,0,0,.74-0.56,2.22,2.22,0,0,0,.54-0.88q0.23-.6.6-1.51t0.37-5.94V287q0-5.38,0-5.38a26.15,26.15,0,0,1-2.92,2.46,16.74,16.74,0,0,0-3.2,3.06q-1.62,2.08-1.62,6.68v0.77Z"/><path class="cls-2" d="M157.5,265.56q5.66-6.08,11.46-6.08a12.23,12.23,0,0,1,9.39,3.85q3.59,3.85,3.59,10.85a26.72,26.72,0,0,0,.47,5.48,8.23,8.23,0,0,0,1,3,12,12,0,0,0,1,1.21,1.49,1.49,0,0,1,.47.63,0.61,0.61,0,0,1-.32.39,4.35,4.35,0,0,0-.76.77A8.59,8.59,0,0,0,183,287a15.76,15.76,0,0,0-1.05,6.63,20.65,20.65,0,0,0,.95,7,12.63,12.63,0,0,0,3.45,4.82q-0.95,1.9-4.15,1.9t-6.12-3.76q-2.81,3.76-5.43,3.76t-3.11-1.9a14.37,14.37,0,0,0,3-5,19.44,19.44,0,0,0,.88-6,26.82,26.82,0,0,0-.35-5,9.2,9.2,0,0,0-.86-2.58,8.31,8.31,0,0,0-1-1.46,6.73,6.73,0,0,0-.86-0.83,0.76,0.76,0,0,1-.35-0.39,2.35,2.35,0,0,1,.54-0.72,17.9,17.9,0,0,0,1.18-1.46A9.19,9.19,0,0,0,170.8,279a19.06,19.06,0,0,0,.54-4.82q0-8.93-4.15-8.93a5.18,5.18,0,0,0-4.36,2.39q-1.72,2.39-1.72,7.17a20.34,20.34,0,0,0,.47,4.71,7.74,7.74,0,0,0,1.05,2.72,14.65,14.65,0,0,0,1.05,1.25,1.66,1.66,0,0,1,.47.63,0.78,0.78,0,0,1-.32.42,5.66,5.66,0,0,0-.76.9,9.41,9.41,0,0,0-.86,1.53,17.12,17.12,0,0,0-1.05,6.77,20.38,20.38,0,0,0,.95,6.94,12.63,12.63,0,0,0,3.45,4.82,2.68,2.68,0,0,1-1.21,1.3,4,4,0,0,1-2.16.6q-3.52,0-6.61-3.76-2.81,3.76-5.77,3.76a5.55,5.55,0,0,1-2.32-.42A2.53,2.53,0,0,1,146,305.5a13.1,13.1,0,0,0,3.45-4.85,16.49,16.49,0,0,0,1-5.92,34.31,34.31,0,0,0-.26-5,8.87,8.87,0,0,0-.77-2.62,12.43,12.43,0,0,0-.88-1.49,4.74,4.74,0,0,0-1-1l-0.63-.49a0.82,0.82,0,0,1,.37-0.37,5.91,5.91,0,0,0,.88-0.83,8.63,8.63,0,0,0,1-1.48q1.23-2.18,1.23-6.79a20.94,20.94,0,0,0-1.05-7.35,14,14,0,0,0-3.8-5.24q0.91-1.83,4.87-1.83T157.5,265.56Z"/><path class="cls-2" d="M221.59,280.89a1.58,1.58,0,0,1-1.69.84,5,5,0,0,1-2.78-.93A8.69,8.69,0,0,1,215,279l-0.7-.91a5.15,5.15,0,0,1-2.81.88,9.2,9.2,0,0,1-2.18-.19,3.38,3.38,0,0,1-1.12-.47,2.66,2.66,0,0,1-.63-0.63,1.49,1.49,0,0,1-.39-0.88l0-.18q1.86,0,3.39-2.23a7.66,7.66,0,0,0,1.53-4.31q0-4.18-4.08-4.18-2.18,0-2.83.86a8.12,8.12,0,0,0-.91,1.44,6.4,6.4,0,0,0-.4,1.81q-0.14,1.62-.14,4.43a24.38,24.38,0,0,0,.35,4.59,8.09,8.09,0,0,0,.88,2.62,7.08,7.08,0,0,0,1,1.34,7.29,7.29,0,0,0,.86.74,0.66,0.66,0,0,1,.35.42,0.62,0.62,0,0,1-.35.4,7.58,7.58,0,0,0-.86.69,6.38,6.38,0,0,0-1,1.27q-1.23,1.9-1.23,6.33t1.67,6.66a5.55,5.55,0,0,0,4.73,2.23,5.1,5.1,0,0,0,4.78-2.46q1.48-2.53,1.48-7.63a1.09,1.09,0,0,1,.76-1,4.52,4.52,0,0,1,1.9-.35,5.11,5.11,0,0,1,2,.39,1.2,1.2,0,0,1,.9,1.05q0,8.54-4,12.76a11.66,11.66,0,0,1-8.89,3.62q-14,0-15.89-14.8-0.56-4.61-1.39-6a16.21,16.21,0,0,0-1.25-1.93,6.92,6.92,0,0,0-.7-0.76,0.65,0.65,0,0,1-.28-0.42v-0.07a0.66,0.66,0,0,1,.35-0.42,7.74,7.74,0,0,0,.88-0.76,6,6,0,0,0,1-1.39q1.23-2,1.23-6.64,0.18-7.24,4.18-11.29t10.69-4a16.67,16.67,0,0,1,8.58,2.6,10.31,10.31,0,0,1,3.53,3.5,8.17,8.17,0,0,1,1.39,4.31,22.72,22.72,0,0,1-.49,4.5,20,20,0,0,0-.49,3.6A5.61,5.61,0,0,0,221.59,280.89Z"/><path class="cls-2" d="M240.68,263.59a13.7,13.7,0,0,1,9.84-4A9.46,9.46,0,0,1,258,263q3,3.5,3,10.25,0,7,3.16,10.3a1.26,1.26,0,0,1,.35.51,0.75,0.75,0,0,1-.33.39,5.39,5.39,0,0,0-.81.86,8.25,8.25,0,0,0-.93,1.55,15.85,15.85,0,0,0-1.12,6.77,20.65,20.65,0,0,0,.95,7,12.63,12.63,0,0,0,3.45,4.82q-0.95,1.9-4.15,1.9t-6.12-3.76q-2.81,3.76-5.73,3.76t-3.37-1.9a13.23,13.23,0,0,0,3.41-5,17.73,17.73,0,0,0,1-6.08,27,27,0,0,0-.35-5.06,9.2,9.2,0,0,0-.86-2.58,8.31,8.31,0,0,0-1-1.46,6.73,6.73,0,0,0-.86-0.83,0.76,0.76,0,0,1-.35-0.39,0.69,0.69,0,0,1,.32-0.37,6.3,6.3,0,0,0,.77-0.76,5.93,5.93,0,0,0,.88-1.39q1.09-2.07,1.09-6.94a20.16,20.16,0,0,0-.91-7.1,3.17,3.17,0,0,0-3.09-2.23q-4,0-5.34,5.41a20.52,20.52,0,0,0-.46,4.71A18.89,18.89,0,0,0,241,280a6.35,6.35,0,0,0,1,2.46,10.55,10.55,0,0,0,1,1,1.27,1.27,0,0,1,.47.54,0.78,0.78,0,0,1-.32.42,5.14,5.14,0,0,0-.74.9,9.92,9.92,0,0,0-.84,1.56,16,16,0,0,0-1.09,6.7,20.67,20.67,0,0,0,.95,7A12.59,12.59,0,0,0,245,305.5a2.68,2.68,0,0,1-1.21,1.3,4,4,0,0,1-2.16.6q-3.52,0-6.61-3.76-2.81,3.76-5.94,3.76t-3.62-1.9a13.1,13.1,0,0,0,3.45-4.85,16.22,16.22,0,0,0,1-5.84,24.61,24.61,0,0,0-.37-4.94,11.17,11.17,0,0,0-.88-2.65,11.45,11.45,0,0,0-1-1.65,9,9,0,0,0-.88-1,1.41,1.41,0,0,1-.37-0.42,0.89,0.89,0,0,1,.37-0.3,4.64,4.64,0,0,0,.88-0.77,7.42,7.42,0,0,0,1-1.42q1.27-2.21,1.27-6.93v-8.93a44.22,44.22,0,0,0-.93-10.34,18.36,18.36,0,0,0-3.32-6.75q0-1.27,1.93-1.86a6.69,6.69,0,0,1,1.76-.21q3.62,0,6.15,3.69a6.91,6.91,0,0,1,3.09-3.27,4.13,4.13,0,0,1,1.93-.42,3.64,3.64,0,0,1,2,.53,2.08,2.08,0,0,1,1,1l0.14,0.53A53.22,53.22,0,0,0,240.68,263.59Z"/><path class="cls-2" d="M307.19,294.88a12.07,12.07,0,0,0-2.29-7.58,7.29,7.29,0,0,0-6.08-3,9.51,9.51,0,0,0-2.29.32,12.33,12.33,0,0,1-1.44.32l-0.28-.07a1.72,1.72,0,0,1-.63-1,8.55,8.55,0,0,0-2.88-4.39A17.68,17.68,0,0,1,284.55,265q0-7.28,4.76-11.21t13.2-3.94a14.26,14.26,0,0,1,6.49,1.41,20.52,20.52,0,0,1,4.31,2.74,10.18,10.18,0,0,1,3.41,7.95,15.44,15.44,0,0,1-.84,4.32,18,18,0,0,0-.84,3.27,6,6,0,0,0,1.76,4,5.93,5.93,0,0,0-1.79-.21,4.33,4.33,0,0,1-2.2-.6,4.88,4.88,0,0,1-1.63-1.48,11.75,11.75,0,0,1-1.72-3.76,3.49,3.49,0,0,1-1.79.79,10.67,10.67,0,0,1-2.62.4,5.41,5.41,0,0,1-1.88-.3,3.68,3.68,0,0,1-1.18-.63,2,2,0,0,1-.54-0.86,2.83,2.83,0,0,1-.25-1.05,7.79,7.79,0,0,0,3.81-1.12,3.58,3.58,0,0,0,1.63-3.29,4.6,4.6,0,0,0-1.35-3.53,4.34,4.34,0,0,0-3-1.27q-5.52,0-5.52,6.61,0,5.59,2.85,8.33a4.35,4.35,0,0,0,3,1.44,11.94,11.94,0,0,0,3.23-.47,14,14,0,0,1,2-.47,1.21,1.21,0,0,1,.58.91,8.16,8.16,0,0,0,2.71,4.22,18.8,18.8,0,0,1,6.08,6.5,18,18,0,0,1,.67,16.1,14.11,14.11,0,0,1-4.18,5.06,20.18,20.18,0,0,1-12.37,4,18.17,18.17,0,0,1-11.14-3.45,12.26,12.26,0,0,1-3.6-4.38,11.4,11.4,0,0,1-1.35-5.12,15.33,15.33,0,0,1,.93-5.08,13.52,13.52,0,0,0,.93-4.11,5.25,5.25,0,0,0-1.2-3.08,2.2,2.2,0,0,1,1.3-.35,4.81,4.81,0,0,1,3.85,2.16,7.36,7.36,0,0,1,1.71,4.41,8.92,8.92,0,0,1,4-1.23,7.4,7.4,0,0,1,2.57.33,2.48,2.48,0,0,1,1.2.86,2.75,2.75,0,0,1,.6,1.55v0.28a6.12,6.12,0,0,0-3.57,1.71A4.91,4.91,0,0,0,296,297.1a3.92,3.92,0,0,0,1.44,3.34,5.86,5.86,0,0,0,3.64,1.09A6.34,6.34,0,0,0,307.19,294.88Z"/><path class="cls-2" d="M336.65,305.53a29.49,29.49,0,0,0,4.29,13.15q0,1.23-2,1.83a6.77,6.77,0,0,1-2.06.25,5.11,5.11,0,0,1-2.76-.93A7.89,7.89,0,0,1,332,318l-0.63-.91a6.82,6.82,0,0,1-.86,1.14,8,8,0,0,1-1.32,1.25,5.41,5.41,0,0,1-3.16,1.3,8.68,8.68,0,0,1-2.2-.21,2.78,2.78,0,0,1-1.11-.53,2.33,2.33,0,0,1-.84-1.34,16.87,16.87,0,0,0,3.32-6.45,41,41,0,0,0,.93-9.93v-8.93a14.28,14.28,0,0,0-.72-5.47,11.45,11.45,0,0,0-1.25-2.18,4.64,4.64,0,0,0-.95-0.93,3.15,3.15,0,0,1-1-.81,0.71,0.71,0,0,1,.39-0.39,6.83,6.83,0,0,0,.95-0.77,7.36,7.36,0,0,0,1.13-1.41q1.34-2,1.48-6.29a28.12,28.12,0,0,0-1-8.07,13.87,13.87,0,0,0-3.29-5.36q0-1.27,2-1.86a5.47,5.47,0,0,1,1.72-.25q3.66,0,6.75,5.31a16,16,0,0,1,5.24-4,13.46,13.46,0,0,1,10.88-.46,13,13,0,0,1,4.17,2.72q4,3.87,4,11.36,0,6.22,2.25,8.37,0.32,0.28.76,0.63l0.51,0.42a0.74,0.74,0,0,1-.37.4,6.3,6.3,0,0,0-.88.81,8,8,0,0,0-1,1.46,13,13,0,0,0-1.23,6.28,20.7,20.7,0,0,1-1,7,12,12,0,0,1-2.79,4.61,11.39,11.39,0,0,1-8.23,3.59A12.63,12.63,0,0,1,336.65,305.53Zm0.25-31q0,6.5,2.67,9a0.91,0.91,0,0,1,.32.46,1.41,1.41,0,0,1-.47.58,11.51,11.51,0,0,0-1,1.13,7.22,7.22,0,0,0-1,2.69,22.11,22.11,0,0,0-.47,5q0,8.33,4.55,8.33t4.55-8.33q0-6.86-2.74-9a0.58,0.58,0,0,1-.3-0.37,1.62,1.62,0,0,1,.49-0.53,4.68,4.68,0,0,0,.83-0.91,12.11,12.11,0,0,0,.81-1.42,16,16,0,0,0,.91-6.26q0-9-4.64-9Q336.9,265.84,336.9,274.53Z"/><path class="cls-2" d="M390.9,291.51a1.08,1.08,0,0,1,.65-1,3.64,3.64,0,0,1,1.72-.35,4.92,4.92,0,0,1,2,.39,1.2,1.2,0,0,1,.9,1.05q0,11.36-6.64,15a10.09,10.09,0,0,1-4,1.34q-1.85.14-2.9,0.14A14.25,14.25,0,0,1,371.95,304q-4-4.06-4.75-12.29-0.42-5.13-3.66-7.17a7.06,7.06,0,0,1-.7-0.46,0.83,0.83,0,0,1,.46-0.33,7.5,7.5,0,0,0,2.36-2,8.68,8.68,0,0,0,1.55-5.59q0-16.73,14.66-16.73,7,0,10.55,4.5,3.09,3.87,3.09,11.21a32.32,32.32,0,0,0,.3,5.77,7.4,7.4,0,0,0,.81,2q0.51,0.84.65,1.13a4,4,0,0,1-3,1.58,2.65,2.65,0,0,1-1.05-.21,16.35,16.35,0,0,0-7.56-1.48,21.49,21.49,0,0,0-6.54.67q-1.44,1.86-1.44,6.75t1.78,7.58a5.79,5.79,0,0,0,5.15,2.69,5.14,5.14,0,0,0,4.83-2.53Q390.9,296.64,390.9,291.51Zm-5.06-13.36,0.07-4.5q0-7.8-3.48-7.8a4.41,4.41,0,0,0-3.52,1.3A4.56,4.56,0,0,0,378,270q-0.07,1.88-.07,5.24a14.35,14.35,0,0,0,.74,5.19,20.23,20.23,0,0,0,5-.76Q385.84,279,385.84,278.15Z"/><path class="cls-2" d="M427.92,291.51a1.08,1.08,0,0,1,.65-1,3.64,3.64,0,0,1,1.72-.35,4.92,4.92,0,0,1,2,.39,1.2,1.2,0,0,1,.9,1.05q0,11.36-6.64,15a10.09,10.09,0,0,1-4,1.34q-1.85.14-2.9,0.14A14.25,14.25,0,0,1,409,304q-4-4.06-4.75-12.29-0.42-5.13-3.66-7.17a7.06,7.06,0,0,1-.7-0.46,0.83,0.83,0,0,1,.46-0.33,7.5,7.5,0,0,0,2.36-2,8.68,8.68,0,0,0,1.55-5.59q0-16.73,14.66-16.73,7,0,10.55,4.5,3.09,3.87,3.09,11.21a32.32,32.32,0,0,0,.3,5.77,7.4,7.4,0,0,0,.81,2q0.51,0.84.65,1.13a4,4,0,0,1-3,1.58,2.65,2.65,0,0,1-1.05-.21,16.35,16.35,0,0,0-7.56-1.48,21.49,21.49,0,0,0-6.54.67q-1.44,1.86-1.44,6.75t1.78,7.58a5.79,5.79,0,0,0,5.15,2.69,5.14,5.14,0,0,0,4.83-2.53Q427.92,296.64,427.92,291.51Zm-5.06-13.36,0.07-4.5q0-7.8-3.48-7.8a4.41,4.41,0,0,0-3.52,1.3A4.56,4.56,0,0,0,415,270q-0.07,1.88-.07,5.24a14.35,14.35,0,0,0,.74,5.19,20.23,20.23,0,0,0,5-.76Q422.86,279,422.86,278.15Z"/><path class="cls-2" d="M468.91,280.89a1.58,1.58,0,0,1-1.69.84,5,5,0,0,1-2.78-.93,8.69,8.69,0,0,1-2.11-1.85l-0.7-.91a5.15,5.15,0,0,1-2.81.88,9.2,9.2,0,0,1-2.18-.19,3.38,3.38,0,0,1-1.12-.47,2.7,2.7,0,0,1-.63-0.63,1.49,1.49,0,0,1-.39-0.88l0-.18q1.86,0,3.39-2.23a7.66,7.66,0,0,0,1.53-4.31q0-4.18-4.08-4.18-2.18,0-2.83.86a8.18,8.18,0,0,0-.91,1.44,6.43,6.43,0,0,0-.4,1.81q-0.14,1.62-.14,4.43a24.38,24.38,0,0,0,.35,4.59,8.12,8.12,0,0,0,.88,2.62,7.08,7.08,0,0,0,1,1.34,7.37,7.37,0,0,0,.86.74,0.66,0.66,0,0,1,.35.42,0.61,0.61,0,0,1-.35.4,7.67,7.67,0,0,0-.86.69,6.38,6.38,0,0,0-1,1.27q-1.23,1.9-1.23,6.33t1.67,6.66a5.55,5.55,0,0,0,4.73,2.23,5.1,5.1,0,0,0,4.78-2.46q1.48-2.53,1.48-7.63a1.09,1.09,0,0,1,.76-1,4.52,4.52,0,0,1,1.9-.35,5.1,5.1,0,0,1,2,.39,1.2,1.2,0,0,1,.9,1.05q0,8.54-4,12.76a11.66,11.66,0,0,1-8.89,3.62q-14,0-15.89-14.8-0.56-4.61-1.39-6a16.21,16.21,0,0,0-1.25-1.93,6.92,6.92,0,0,0-.7-0.76,0.65,0.65,0,0,1-.28-0.42v-0.07a0.66,0.66,0,0,1,.35-0.42,7.65,7.65,0,0,0,.88-0.76,6,6,0,0,0,1-1.39q1.23-2,1.23-6.64,0.18-7.24,4.18-11.29t10.69-4a16.67,16.67,0,0,1,8.58,2.6,10.29,10.29,0,0,1,3.53,3.5,8.17,8.17,0,0,1,1.39,4.31,22.72,22.72,0,0,1-.49,4.5,20.12,20.12,0,0,0-.49,3.6A5.61,5.61,0,0,0,468.91,280.89Z"/><path class="cls-2" d="M488,263.59a13.7,13.7,0,0,1,9.84-4,9.46,9.46,0,0,1,7.47,3.5q3,3.5,3,10.25,0,7,3.16,10.3a1.25,1.25,0,0,1,.35.51,0.75,0.75,0,0,1-.33.39,5.44,5.44,0,0,0-.81.86,8.3,8.3,0,0,0-.93,1.55,15.87,15.87,0,0,0-1.12,6.77,20.65,20.65,0,0,0,.95,7A12.65,12.65,0,0,0,513,305.5q-0.95,1.9-4.15,1.9t-6.12-3.76Q500,307.4,497,307.4t-3.37-1.9a13.23,13.23,0,0,0,3.41-5,17.71,17.71,0,0,0,1-6.08,26.86,26.86,0,0,0-.35-5.06,9.17,9.17,0,0,0-.86-2.58,8.26,8.26,0,0,0-1-1.46,6.67,6.67,0,0,0-.86-0.83,0.76,0.76,0,0,1-.35-0.39,0.69,0.69,0,0,1,.32-0.37,6.3,6.3,0,0,0,.77-0.76,5.9,5.9,0,0,0,.88-1.39q1.09-2.07,1.09-6.94a20.16,20.16,0,0,0-.91-7.1,3.17,3.17,0,0,0-3.09-2.23q-4,0-5.34,5.41a20.52,20.52,0,0,0-.46,4.71,18.89,18.89,0,0,0,.47,4.64,6.35,6.35,0,0,0,1,2.46,10.66,10.66,0,0,0,1,1,1.27,1.27,0,0,1,.47.54,0.78,0.78,0,0,1-.32.42,5.14,5.14,0,0,0-.74.9A9.92,9.92,0,0,0,489,287a16,16,0,0,0-1.09,6.7,20.67,20.67,0,0,0,.95,7,12.6,12.6,0,0,0,3.45,4.83,2.68,2.68,0,0,1-1.21,1.3,4,4,0,0,1-2.16.6q-3.52,0-6.61-3.76-2.81,3.76-5.94,3.76t-3.62-1.9a13.09,13.09,0,0,0,3.45-4.85,16.2,16.2,0,0,0,1-5.84,24.61,24.61,0,0,0-.37-4.94,11.13,11.13,0,0,0-.88-2.65,11.36,11.36,0,0,0-1-1.65,9,9,0,0,0-.88-1,1.41,1.41,0,0,1-.37-0.42,0.89,0.89,0,0,1,.37-0.3,4.64,4.64,0,0,0,.88-0.77,7.33,7.33,0,0,0,1-1.42q1.27-2.21,1.27-6.93v-8.93a44.17,44.17,0,0,0-.93-10.34,18.36,18.36,0,0,0-3.32-6.75q0-1.27,1.93-1.86a6.69,6.69,0,0,1,1.76-.21q3.62,0,6.15,3.69a6.91,6.91,0,0,1,3.09-3.27,4.13,4.13,0,0,1,1.93-.42,3.64,3.64,0,0,1,2,.53,2.08,2.08,0,0,1,1,1l0.14,0.53A53.26,53.26,0,0,0,488,263.59Z"/><path class="cls-2" d="M169.27,398.58a16.39,16.39,0,0,0-3.1-10.29,9.9,9.9,0,0,0-8.26-4,12.91,12.91,0,0,0-3.1.43,16.75,16.75,0,0,1-2,.43l-0.38-.1a2.33,2.33,0,0,1-.86-1.38,11.61,11.61,0,0,0-3.92-6q-9.17-7.4-9.17-19.67,0-9.89,6.47-15.23t17.93-5.35a19.36,19.36,0,0,1,8.81,1.91,27.88,27.88,0,0,1,5.85,3.72,13.82,13.82,0,0,1,4.63,10.79,21,21,0,0,1-1.15,5.87,24.45,24.45,0,0,0-1.15,4.44,8.11,8.11,0,0,0,2.39,5.49,8.06,8.06,0,0,0-2.44-.29,5.88,5.88,0,0,1-3-.81,6.63,6.63,0,0,1-2.22-2,15.94,15.94,0,0,1-2.34-5.11,4.75,4.75,0,0,1-2.44,1.07,14.5,14.5,0,0,1-3.56.55,7.35,7.35,0,0,1-2.55-.41,5,5,0,0,1-1.6-.86,2.69,2.69,0,0,1-.74-1.17,3.84,3.84,0,0,1-.33-1.43,10.58,10.58,0,0,0,5.18-1.53,4.86,4.86,0,0,0,2.22-4.47,6.25,6.25,0,0,0-1.84-4.8,5.9,5.9,0,0,0-4.13-1.72q-7.5,0-7.5,9,0,7.59,3.87,11.32a5.91,5.91,0,0,0,4.11,2,16.22,16.22,0,0,0,4.39-.64,19,19,0,0,1,2.65-.64q0.36,0,.79,1.24,1.48,4.25,3.68,5.73a25.54,25.54,0,0,1,8.26,8.83,24.45,24.45,0,0,1,.91,21.87,19.19,19.19,0,0,1-5.68,6.88,27.42,27.42,0,0,1-16.81,5.4,24.68,24.68,0,0,1-15.14-4.68,16.63,16.63,0,0,1-4.89-5.95,15.48,15.48,0,0,1-1.84-6.95,20.82,20.82,0,0,1,1.27-6.9,18.4,18.4,0,0,0,1.27-5.59,7.14,7.14,0,0,0-1.62-4.18,3,3,0,0,1,1.77-.48,6.54,6.54,0,0,1,5.23,2.94,10,10,0,0,1,2.32,6,12.12,12.12,0,0,1,5.49-1.67,10.05,10.05,0,0,1,3.49.45,3.36,3.36,0,0,1,1.62,1.17,3.73,3.73,0,0,1,.81,2.1v0.38a8.31,8.31,0,0,0-4.85,2.32,6.66,6.66,0,0,0-2.08,5,5.32,5.32,0,0,0,2,4.54,8,8,0,0,0,4.94,1.48A8.62,8.62,0,0,0,169.27,398.58Z"/><path class="cls-2" d="M235.79,433.73q-4.68,0-7.88-5-0.14.19-.36,0.53a12.53,12.53,0,0,1-1,1.22,12,12,0,0,1-1.62,1.53,9.43,9.43,0,0,1-2.17,1.19,7.11,7.11,0,0,1-2.72.55,8.76,8.76,0,0,1-2.39-.29,4.28,4.28,0,0,1-1.53-.72,3,3,0,0,1-1.15-1.81,40.05,40.05,0,0,0,5.83-17.86,16.86,16.86,0,0,1-10.55,3.44,15.68,15.68,0,0,1-11.37-4.87q-5.21-5.11-5.21-15.09,0-9.22-4.3-12.23a1.07,1.07,0,0,1-.48-0.57q0.1-.1.69-0.57t1-.88a7.39,7.39,0,0,0,1.05-1.41,11.67,11.67,0,0,0,1.05-2.2,25.54,25.54,0,0,0,1-7.81,25.88,25.88,0,0,1,1.46-8.93,16.68,16.68,0,0,1,4-6.42,17,17,0,0,1,12.27-5,18.91,18.91,0,0,1,8.12,1.89,21.73,21.73,0,0,1,7.12,5.42q4.2-7.21,9.17-7.21,2.72,0,3.49.72a4.21,4.21,0,0,1,1.53,2.15,18.84,18.84,0,0,0-4.47,7.28,38.2,38.2,0,0,0-1.31,11q0.29,8.6,4.82,11.51a1,1,0,0,1,.53.5,0.79,0.79,0,0,1-.41.45l-1,.67a6.27,6.27,0,0,0-1.29,1.27,10.49,10.49,0,0,0-1.29,2.08,20.08,20.08,0,0,0-1.38,8.31v12.13a55.67,55.67,0,0,0,1.27,13.49,22.92,22.92,0,0,0,4.51,8.76q0,1.72-2.63,2.48A7.87,7.87,0,0,1,235.79,433.73Zm-15.33-62.8q0-11.8-6-11.8-6.3,0-6.3,12.27,0,5.78.93,7.76a21.77,21.77,0,0,0,1.41,2.67,6.39,6.39,0,0,0,1.12,1.24,2.2,2.2,0,0,1,.67.72,0.79,0.79,0,0,1-.41.5,8.66,8.66,0,0,0-1.05,1,8.35,8.35,0,0,0-1.19,1.84q-1.48,2.87-1.48,9.36,0,11.32,6.18,11.32t6.18-11.32a30,30,0,0,0-.64-6.78,9.81,9.81,0,0,0-1.41-3.65,15.48,15.48,0,0,0-1.41-1.53,1.91,1.91,0,0,1-.64-0.79,1.14,1.14,0,0,1,.43-0.6,8.32,8.32,0,0,0,1-1.22,13.14,13.14,0,0,0,1.15-2.05Q220.46,376.8,220.46,370.93Z"/><path class="cls-2" d="M277.77,350.54q4.35,0,7.83,5.11a10,10,0,0,1,4.63-4.58,5.61,5.61,0,0,1,2.36-.53,9.29,9.29,0,0,1,2.2.24,5.28,5.28,0,0,1,1.48.55,3.65,3.65,0,0,1,.84.69,1.93,1.93,0,0,1,.57,1.15,18.3,18.3,0,0,0-4.78,7.23,27.1,27.1,0,0,0-1.38,8.93,45.77,45.77,0,0,0,.43,7.35,14.84,14.84,0,0,0,1,3.65,11.1,11.1,0,0,0,1.19,2,7.56,7.56,0,0,0,1,1.12,1,1,0,0,1,.43.55,1.91,1.91,0,0,1-.64.79,12.88,12.88,0,0,0-1.38,1.55,10.44,10.44,0,0,0-1.38,3.65,36.67,36.67,0,0,0-.64,8,26.64,26.64,0,0,0,1.19,8.67,16.43,16.43,0,0,0,4.54,6.52q-1.24,2.44-6.45,2.44a8.13,8.13,0,0,1-5.09-1.89,14,14,0,0,1-3.51-3.75l-1.1-1.86q-5,8.4-13.37,8.4-9.69,0-14.71-8.5a18.13,18.13,0,0,1-2.48-9.31,38.75,38.75,0,0,0-.67-8.07,11.72,11.72,0,0,0-1.43-4,15.5,15.5,0,0,0-1.43-1.7,2.24,2.24,0,0,1-.67-0.86,1,1,0,0,1,.43-0.55,7.93,7.93,0,0,0,1.05-1.15,11.33,11.33,0,0,0,1.24-2.08q1.48-3.06,1.48-9.69a35.63,35.63,0,0,0-1.19-10.39,17.81,17.81,0,0,0-4.35-7q1.34-2.63,5.16-2.63a6.28,6.28,0,0,1,4.11,1.29,18.68,18.68,0,0,1,3.72,3.82q3.82-5.11,7.83-5.11,3.72,0,4.15,2.63a17.67,17.67,0,0,0-4.3,7.21,30.6,30.6,0,0,0-1.24,9,45.56,45.56,0,0,0,.43,7.33,14.84,14.84,0,0,0,1,3.65,11.1,11.1,0,0,0,1.19,2,7.56,7.56,0,0,0,1,1.12,1,1,0,0,1,.43.55,2,2,0,0,1-.64.81,15.36,15.36,0,0,0-1.41,1.6,10.67,10.67,0,0,0-1.41,3.87,36.68,36.68,0,0,0-.64,7.69,13.62,13.62,0,0,0,1.93,7.69,5.64,5.64,0,0,0,4.78,2.89q2.84,0,5-3a13,13,0,0,0,2.15-7.69,40.16,40.16,0,0,0-.57-7.55,10.81,10.81,0,0,0-1.29-3.87,18.51,18.51,0,0,0-1.29-1.6,1.93,1.93,0,0,1-.57-0.84,1.05,1.05,0,0,1,.38-0.6,7.24,7.24,0,0,0,.91-1.22A13.25,13.25,0,0,0,277,380q1.29-3.2,1.29-9.62a41.25,41.25,0,0,0-1-10.2,19.11,19.11,0,0,0-3.58-7,1.48,1.48,0,0,0,.1-0.29,2.52,2.52,0,0,1,.36-0.64,3.48,3.48,0,0,1,.74-0.79A4.43,4.43,0,0,1,277.77,350.54Z"/><path class="cls-2" d="M335.21,408a10,10,0,0,1-5.21,6.73,15.67,15.67,0,0,1-3.68,1.31,23.37,23.37,0,0,1-4.82.41,17.37,17.37,0,0,1-6.21-1.24,13.13,13.13,0,0,1-3.56-2,12.22,12.22,0,0,1-2.84-3.46,15.67,15.67,0,0,1-1.81-5.06,13.89,13.89,0,0,0-3.2-6.09,3.67,3.67,0,0,1-.86-1.24,10.57,10.57,0,0,1,1.7-2.17,8.84,8.84,0,0,0,2.13-3.94q1.38-6.45,6.3-9.07a26.41,26.41,0,0,1,4.63-2q2.48-.81,4.8-1.48a26.25,26.25,0,0,0,4.23-1.6,7.43,7.43,0,0,0,3.06-2.72,9.82,9.82,0,0,0,1.15-5.25q0-3.46-.24-6.42a10.69,10.69,0,0,0-.5-2.77,10.18,10.18,0,0,0-.93-1.86,3.07,3.07,0,0,0-1.48-1.27,7.12,7.12,0,0,0-2.53-.36,3.62,3.62,0,0,0-2.82,1.38,5.15,5.15,0,0,0-1.19,3.49,12.07,12.07,0,0,0,1.46,5.09,6.12,6.12,0,0,0,4,3.61,4.41,4.41,0,0,1-4.27,3.06,8.82,8.82,0,0,1-5.52-2q0.24,0.24-1.05,2.34a14.41,14.41,0,0,1-1.38,1.91,6.85,6.85,0,0,1-2.1,1.62,5.65,5.65,0,0,1-2.63.67,2.31,2.31,0,0,1-1.91-.72q2.48-2.48,2.48-4.68a18.72,18.72,0,0,0-.67-3.46,18,18,0,0,1-.67-3.94,11.5,11.5,0,0,1,4.44-9.41,26.78,26.78,0,0,1,5.44-3.3,18.35,18.35,0,0,1,8-1.67q19.05,0,19.05,20.82a20.42,20.42,0,0,0,1.91,9,9.9,9.9,0,0,0,4,3.63,1.11,1.11,0,0,1-.55.57,10.06,10.06,0,0,0-1.36,1.22,13,13,0,0,0-1.62,2.13,12.18,12.18,0,0,0-1.36,3.72,34.93,34.93,0,0,0-.55,7.16,25.14,25.14,0,0,0,1.24,8.29,16.82,16.82,0,0,0,3.63,6.09,4.36,4.36,0,0,1-1.81,1.58,8.26,8.26,0,0,1-1.89.6,13.47,13.47,0,0,1-2.82.26,7.16,7.16,0,0,1-3.22-.81A14.22,14.22,0,0,1,335.21,408Zm-14.66-9.89q0,10.74,4.54,10.74a4.75,4.75,0,0,0,2.87-.72,9.15,9.15,0,0,0,1-.76,3,3,0,0,0,.74-1.19q0.31-.81.81-2.05t0.5-8.07v-8.26q0-7.31,0-7.31a35.46,35.46,0,0,1-4,3.34,22.78,22.78,0,0,0-4.35,4.15q-2.2,2.82-2.2,9.07v1.05Z"/><path class="cls-2" d="M393,409.85a15.61,15.61,0,0,1-13.37,6.64,18.55,18.55,0,0,1-17-11.44,18.5,18.5,0,0,1-1.62-7.28,41.5,41.5,0,0,0-.29-5.52A18.37,18.37,0,0,0,360,389a10.7,10.7,0,0,0-1-2.2,7.39,7.39,0,0,0-1.05-1.41q-0.43-.41-1-0.88t-0.69-.57a1.08,1.08,0,0,1,.5-0.57,9.43,9.43,0,0,0,1.19-1.15,10.18,10.18,0,0,0,1.36-2q1.72-3.06,1.72-9.55,0-9.6,4.47-14.88a14.31,14.31,0,0,1,11.44-5.28q7,0,10.74,5.06a51.65,51.65,0,0,0-5.35-19.77q0-1.67,2.67-2.53a8.76,8.76,0,0,1,2.39-.29q4.68,0,7.88,5a9.27,9.27,0,0,1,1.17-1.55,12.93,12.93,0,0,1,1.79-1.74,7.91,7.91,0,0,1,4.7-1.72,7.33,7.33,0,0,1,3.61.72,2.83,2.83,0,0,1,1.43,1.38l0.19,0.72a24.61,24.61,0,0,0-4.51,9,57.34,57.34,0,0,0-1.27,13.73v12.13q0,9.79,4.78,12.7a1,1,0,0,1,.57.53,1,1,0,0,1-.53.53,9.38,9.38,0,0,0-1.29,1.05,10.63,10.63,0,0,0-1.53,1.86q-1.81,2.82-2,8.6A32.5,32.5,0,0,0,403.62,406a17,17,0,0,0,4.47,6.69q0,1.72-2.67,2.53a7.41,7.41,0,0,1-2.34.33Q397.58,415.58,393,409.85Zm-5.21-10.6v-3.1q0-5.25-1-7.43a22.59,22.59,0,0,0-1.6-3,8.32,8.32,0,0,0-1-1.22,1.12,1.12,0,0,1-.43-0.62,1.82,1.82,0,0,1,.64-0.81,14.34,14.34,0,0,0,1.41-1.55,10.29,10.29,0,0,0,1.41-3.8,32.48,32.48,0,0,0,.64-7q0-12.42-6.18-12.42t-6.18,12.42q0,9.6,3.72,12.65a0.92,0.92,0,0,1,.41.55,2.2,2.2,0,0,1-.67.72,6.09,6.09,0,0,0-1.12,1.27,14.86,14.86,0,0,0-1.05,2,15.74,15.74,0,0,0-1.29,6.76q0,4,0,5.23t0.14,2.94a15.56,15.56,0,0,0,.33,2.58,13,13,0,0,0,.67,1.89,3.55,3.55,0,0,0,1.12,1.53,5.92,5.92,0,0,0,3.25,1.1,16.07,16.07,0,0,0,2.32-.12,4.4,4.4,0,0,0,1.34-.43,11.09,11.09,0,0,0,1-.6,2.39,2.39,0,0,0,.76-1q0.33-.69.57-1.15a4.84,4.84,0,0,0,.38-1.48q0.14-1,.24-1.65Q387.74,402,387.74,399.25Z"/></svg>