<svg id="Livello_1" data-name="Livello 1" xmlns="http://www.w3.org/2000/svg" viewBox="0 0 546.6 546.6"><defs><style>.cls-1{fill:#ed1e79;}.cls-2{fill:lime;}</style></defs><title>partner-logo</title><circle class="cls-1" cx="273.3" cy="273.3" r="273.3"/><path class="cls-2" d="M105.06,123.88h10.2c4.91,0,10.87,2.25,10.87,10,0,7.21-5.37,9.91-10.37,9.91h-4.46V155.2h-6.25V123.88Zm9.75,14.54c4.12,0,5.08-2.5,5.08-4.58s-1.46-4.62-5-4.62h-3.54v9.2h3.5Z"/><path class="cls-2" d="M139.75,155.78c-6.46,0-11-4.42-11-11.29s4.5-11.29,11-11.29,11,4.41,11,11.29S146.21,155.78,139.75,155.78Zm0-17.74c-3.17,0-4.71,2.75-4.71,6.46s1.54,6.46,4.71,6.46,4.71-2.75,4.71-6.46S142.92,138,139.75,138Z"/><path class="cls-2" d="M180.57,141.41a3.09,3.09,0,0,0-3.21-3.37c-2.29,0-3.42,2.12-3.42,3.83V155.2h-6V142c0-2.25-.75-4-3.25-4s-3.37,2.08-3.37,4.17v13h-6V133.79h5.75v2.79h0.08a6.88,6.88,0,0,1,6.46-3.37,6.17,6.17,0,0,1,5.75,3.33,7.45,7.45,0,0,1,6.29-3.33c3.67,0,6.91,2.12,6.91,6.62V155.2h-6V141.41Z"/><path class="cls-2" d="M192.68,133.79h5.75v3h0.08a8,8,0,0,1,7-3.58c6,0,10,5.37,10,11.33s-3.75,11.25-9.91,11.25a7.75,7.75,0,0,1-6.79-3.5h-0.08v12.25h-6V133.79ZM203.81,138c-3.42,0-5.33,2.83-5.33,6.41,0,3.21,1.75,6.25,5.5,6.25,3.46,0,5.25-3.08,5.25-6.33S207.35,138,203.81,138Z"/><path class="cls-2" d="M229.92,155.78c-6.46,0-11-4.42-11-11.29s4.5-11.29,11-11.29,11,4.41,11,11.29S236.37,155.78,229.92,155.78Zm0-17.74c-3.17,0-4.71,2.75-4.71,6.46s1.54,6.46,4.71,6.46,4.71-2.75,4.71-6.46S233.08,138,229.92,138Z"/><path class="cls-2" d="M259.4,152.41h-0.08a7.12,7.12,0,0,1-6.33,3.37c-5.16,0-7.5-3.33-7.5-7.46V133.79h6v13c0,3.08,1.87,4.12,3.75,4.12,2.42,0,3.92-2.08,3.92-5V133.79h6V155.2H259.4v-2.79Z"/><path class="cls-2" d="M282.73,140.41c-0.08-1.79-1.37-2.87-3.66-2.87-1.58,0-3.17.62-3.17,1.92,0,3.83,13.33.5,13.33,9.16,0,1.67-.92,7.16-9.75,7.16-3,0-9-.92-9.5-7.25h6c0.08,2.08,1.92,2.92,3.71,2.92,1.54,0,3.54-.46,3.54-2.21,0-3.58-12.83-.33-12.83-9.16,0-3.29,2.54-6.87,8.87-6.87,5.5,0,9.12,2.42,9.45,7.08Z"/><path class="cls-2" d="M207.24,192.35c0-2.14-1.18-4.33-4.12-4.33s-4.39,2.73-4.39,4.92V210H191v-17c0-2.89-1-5.08-4.17-5.08s-4.33,2.67-4.33,5.35V210h-7.7V182.56h7.38v3.58h0.11a8.84,8.84,0,0,1,8.29-4.33,7.92,7.92,0,0,1,7.38,4.28,9.57,9.57,0,0,1,8.08-4.28c4.71,0,8.88,2.73,8.88,8.5V210h-7.7v-17.7Z"/><path class="cls-2" d="M234.94,210.8c-8.29,0-14.07-5.67-14.07-14.49s5.78-14.49,14.07-14.49S249,187.48,249,196.3,243.23,210.8,234.94,210.8Zm0-22.78c-4.06,0-6,3.53-6,8.29s2,8.29,6,8.29,6-3.53,6-8.29S239,188,234.94,188Z"/><path class="cls-2" d="M272.8,206.47h-0.11a9.14,9.14,0,0,1-8.13,4.33c-6.63,0-9.63-4.28-9.63-9.57V182.56h7.7V199.3c0,4,2.41,5.29,4.81,5.29,3.1,0,5-2.67,5-6.42V182.56h7.7V210H272.8v-3.58Z"/><path class="cls-2" d="M302.74,191.06c-0.11-2.3-1.76-3.69-4.71-3.69-2,0-4.06.8-4.06,2.46,0,4.92,17.11.64,17.11,11.77,0,2.14-1.18,9.2-12.51,9.2-3.85,0-11.55-1.18-12.19-9.31h7.7c0.11,2.67,2.46,3.74,4.76,3.74,2,0,4.55-.59,4.55-2.83,0-4.6-16.47-.43-16.47-11.77,0-4.23,3.26-8.82,11.39-8.82,7.06,0,11.71,3.1,12.14,9.09Z"/><path class="cls-2" d="M314.56,182.56h3.53v-7.92h7.7v7.92h4.06v5.88h-4.06v13.9c0,1.23.54,1.82,2.51,1.82a6.58,6.58,0,0,0,1.55-.16v6a28.67,28.67,0,0,1-3.69.32c-5,0-8.08-1.23-8.08-7.17V188.44h-3.53v-5.88Z"/><path class="cls-2" d="M353.12,206.47H353a11.34,11.34,0,0,1-9.41,4.33c-4.33,0-9.63-2.14-9.63-8.4,0-2.94,1-7.81,11.71-8.45l7.11-.43v-1.28c0-3.26-2-4.87-5.4-4.87-3.16,0-5,1.6-5.19,4.06h-7.38c0.27-4.23,3.26-9.63,12.89-9.63,6.79,0,12.46,2.57,12.46,8.88v15.94a15.18,15.18,0,0,0,.37,3.42h-7.43v-3.58Zm-0.32-8.4-6.42.59c-3.53.32-4.71,1.39-4.71,3.37,0,2.46,2.25,3.21,4.81,3.21,2.41,0,6.31-1.34,6.31-4.65v-2.51Z"/><path class="cls-2" d="M384.14,193.1c-0.16-3.85-2.41-4.76-4.44-4.76-4.76,0-5.35,5-5.35,8.56s1.28,7.7,5.29,7.7c2.94,0,4.44-1.82,4.87-4.49l7.54,0.27c-1.18,6-4.81,10.43-12.19,10.43-9,0-13.53-5.78-13.53-14.23,0-8.82,5-14.76,13.37-14.76,8.18,0,12.09,5.13,12.46,11Z"/><path class="cls-2" d="M415,193.31c0-4-2.41-5.29-4.81-5.29-3.1,0-5,2.67-5,6.42V210h-7.7V169.83h7.7v16.31h0.11a8.6,8.6,0,0,1,7.81-4.33c6.63,0,9.63,4.28,9.63,9.57V210H415V193.31Z"/><path class="cls-2" d="M436.7,198.5c0.32,3.21,2.3,6.42,6.42,6.42a6,6,0,0,0,5.51-3.26l7.49,0.59c-1.87,5.62-6.9,8.56-13.37,8.56-8.29,0-14.07-5.67-14.07-14.44s5.78-14.55,14.07-14.55,14.07,5.67,14.07,14.55v2.14H436.7Zm12.41-4.92c-0.27-2.67-2.3-5.88-6-5.88-4,0-6,2.78-6.42,5.88h12.41Z"/><path class="cls-2" d="M483.18,206.2h-0.11a10.23,10.23,0,0,1-8.93,4.6c-7.65,0-12.84-6.9-12.84-14.55s4.81-14.44,12.73-14.44c3.53,0,6.15,1.12,8.72,4.49h0.11V169.83h7.7V210h-7.38V206.2Zm-7.11-17.86c-4.44,0-6.74,4-6.74,8.13,0,4.33,2.41,8.13,7,8.13,4.39,0,6.85-3.64,6.85-8.24C483.12,192.24,480.88,188.34,476.06,188.34Z"/><path class="cls-2" d="M57.21,256.4c-0.17-3.6-2.76-5.78-7.37-5.78-3.18,0-6.36,1.26-6.36,3.85,0,7.71,26.8,1,26.8,18.42,0,3.35-1.84,14.4-19.6,14.4-6,0-18.09-1.84-19.1-14.57H43.65c0.17,4.19,3.85,5.86,7.45,5.86,3.1,0,7.12-.92,7.12-4.44,0-7.2-25.79-.67-25.79-18.42,0-6.62,5.11-13.82,17.84-13.82,11.05,0,18.34,4.86,19,14.24Z"/><path class="cls-2" d="M75.72,243.09h5.53V230.69H93.3v12.39h6.37v9.21H93.3v21.77c0,1.93.84,2.85,3.94,2.85a10.34,10.34,0,0,0,2.43-.25v9.46a44.9,44.9,0,0,1-5.78.5c-7.87,0-12.65-1.93-12.65-11.22V252.3H75.72v-9.21Z"/><path class="cls-2" d="M127.64,287.31c-13,0-22-8.88-22-22.7s9-22.7,22-22.7,22,8.88,22,22.7S140.62,287.31,127.64,287.31Zm0-35.68c-6.37,0-9.46,5.53-9.46,13s3.1,13,9.46,13,9.46-5.53,9.46-13S134,251.63,127.64,251.63Z"/><path class="cls-2" d="M184.58,259.59c-0.25-6-3.77-7.45-7-7.45-7.45,0-8.37,7.87-8.37,13.4,0,5.69,2,12.06,8.29,12.06,4.61,0,7-2.85,7.62-7L197,271c-1.84,9.46-7.54,16.33-19.1,16.33-14.07,0-21.19-9-21.19-22.28,0-13.82,7.87-23.11,20.94-23.11,12.81,0,18.93,8,19.51,17.17Z"/><path class="cls-2" d="M217.74,265h-0.17v21.1H205.51v-63h12.06v38.78h0.17l13-18.84h14l-14.4,19.43,15,23.62H230.47Z"/><path class="cls-2" d="M252.83,223.16h12.06V249h0.17c4-5.28,8.12-7,13.65-7,12.39,0,19.93,10.64,19.93,22.61s-8.12,22.78-20.1,22.78a16,16,0,0,1-14-7.2h-0.17v6H252.83v-63Zm22.7,29c-7.54,0-11.05,6.11-11.05,12.56,0,7.2,3.85,12.9,10.72,12.9,7.12,0,10.89-5.95,10.89-12.73C286.07,258.33,282.47,252.13,275.52,252.13Z"/><path class="cls-2" d="M307.93,243.09h11.56v8.29h0.17c2.26-6.11,6.7-9.46,12.39-9.46h1.68v11.72H331c-6.2,0-11.05,3.77-11.05,11.39v21.1H307.93v-43Z"/><path class="cls-2" d="M360.27,287.31c-13,0-22-8.88-22-22.7s9-22.7,22-22.7,22,8.88,22,22.7S373.25,287.31,360.27,287.31Zm0-35.68c-6.37,0-9.46,5.53-9.46,13s3.1,13,9.46,13,9.46-5.53,9.46-13S366.63,251.63,360.27,251.63Z"/><path class="cls-2" d="M403.81,265h-0.17v21.1H391.58v-63h12.06v38.78h0.17l13-18.84h14l-14.4,19.43,15,23.62H416.54Z"/><path class="cls-2" d="M448.44,268c0.5,5,3.6,10.05,10,10.05a9.31,9.31,0,0,0,8.63-5.11l11.72,0.92c-2.93,8.79-10.8,13.4-20.94,13.4-13,0-22-8.88-22-22.61,0-13.9,9-22.78,22-22.78s22,8.88,22,22.78V268H448.44Zm19.43-7.7c-0.42-4.19-3.6-9.21-9.38-9.21-6.28,0-9.38,4.35-10,9.21h19.43Z"/><path class="cls-2" d="M489.22,243.09h11.56v8.29h0.17c2.26-6.11,6.7-9.46,12.39-9.46H515v11.72h-2.68c-6.2,0-11.05,3.77-11.05,11.39v21.1H489.22v-43Z"/><path class="cls-2" d="M124.59,320.22h9.17V299.67h20v20.56h10.56V335.5H153.76v36.11c0,3.19,1.39,4.72,6.53,4.72a17.16,17.16,0,0,0,4-.42v15.69a74.46,74.46,0,0,1-9.58.83c-13.06,0-21-3.19-21-18.61V335.5h-9.17V320.22Z"/><path class="cls-2" d="M196.53,391.61l-26.8-71.39h21.94l15.14,47.22h0.28l15.14-47.22h21.94l-38.61,102.5h-21Z"/><path class="cls-2" d="M256.38,320.22h19.17v10h0.28c5.69-8.47,14-11.94,23.2-11.94,19.86,0,33.33,17.92,33.33,37.78s-12.5,37.5-33.06,37.5c-9.17,0-16-2.92-22.64-11.67h-0.28v40.83h-20V320.22Zm37.08,14.17c-11.39,0-17.78,9.44-17.78,21.39,0,10.69,5.83,20.83,18.33,20.83,11.53,0,17.5-10.28,17.5-21.11C311.53,344.25,305.28,334.39,293.47,334.39Z"/><path class="cls-2" d="M364.85,361.61c0.83,8.33,6,16.67,16.67,16.67,6.11,0,11.53-2.92,14.31-8.47l19.45,1.53c-4.86,14.58-17.92,22.22-34.72,22.22-21.53,0-36.53-14.72-36.53-37.5,0-23.06,15-37.78,36.53-37.78s36.53,14.72,36.53,37.78v5.55H364.85Zm32.22-12.78c-0.69-6.95-6-15.28-15.56-15.28-10.42,0-15.56,7.22-16.67,15.28h32.22Z"/></svg>