<svg id="Livello_1" data-name="Livello 1" xmlns="http://www.w3.org/2000/svg" viewBox="0 0 546.6 546.6"><defs><style>.cls-1{fill:#93278f;}.cls-2{fill:aqua;}</style></defs><title>partner-logo</title><circle class="cls-1" cx="273.3" cy="273.3" r="273.3"/><path class="cls-2" d="M133.33,190.82H116.69l1.5-10.81,1.66-.08,5.07-36.1h-1.83l-0.75,3.33h-7.49l2.08-14.56h32.44l-2.08,14.56h-7.49l0.25-3.33h-1.83l-5.07,36.1,1.66,0.08Z"/><path class="cls-2" d="M179.07,190.82H162.44l1.5-10.81,1.67-.08,1.83-13.23h-5.82l-1.83,13.23,1.66,0.08-1.5,10.81H143.3L144.8,180l1.66-.08,5.07-36.35L150,143.4l1.5-10.81H168.1l-1.5,10.81-1.75.17-1.66,11.9H169l1.66-11.9-1.58-.17,1.5-10.81h16.64l-1.5,10.81-1.75.17-5.07,36.35,1.66,0.08Z"/><path class="cls-2" d="M213.51,176.26l-2,14.56H181.57l1.5-10.81,1.66-.08,5.07-36.35-1.58-.17,1.5-10.81h29.11l-2.08,14.56H207.6l0.25-3.33h-4.74l-1.66,11.65h13.31l-1.58,11.23H199.87L198,179.59h5.57l0.75-3.33h9.15Z"/><path class="cls-2" d="M241.46,190.82H224.82l1.5-10.81,1.5-.08,13.47-47.75H260l-0.25,47.75,1.5,0.08-1.5,10.81H243.12l1.5-10.81,1.83-.17,0.5-4H241.7l-0.67,4L243,180ZM244.28,165h3.16l0.66-11.65,0.42-5.82h-0.33l-1.25,5.82Z"/><path class="cls-2" d="M281.8,190.82H265.16l1.5-10.81,1.66-.08,5.07-36.1h-1.83l-0.75,3.33h-7.49l2.08-14.56h32.44l-2.08,14.56h-7.49l0.25-3.33h-1.83l-5.07,36.1L283.3,180Z"/><path class="cls-2" d="M315.9,190.82H299.26l1.5-10.81,1.66-.08,5.07-36.1h-1.83l-0.75,3.33h-7.49l2.08-14.56H332l-2.08,14.56h-7.49l0.25-3.33h-1.83l-5.07,36.1L317.4,180Z"/><path class="cls-2" d="M342.52,190.82H325.88l1.5-10.81,1.66-.08,5.07-36.35-1.58-.17,1.5-10.81h16.64l-1.5,10.81-1.75.17-5.07,36.35L344,180Z"/><path class="cls-2" d="M377,176.26l-2,14.56H345l1.5-10.81,1.66-.08,5.07-36.35-1.58-.17,1.5-10.81H369.8l-1.5,10.81-1.75.17-5.07,36h5.57l0.75-3.33H377Z"/><path class="cls-2" d="M391.59,190.82H375l1.5-10.81,1.5-.08,13.48-47.75h18.72l-0.25,47.75,1.5,0.08-1.5,10.81H393.25l1.5-10.81,1.83-.17,0.5-4h-5.24l-0.67,4,1.91,0.17ZM394.42,165h3.16l0.67-11.65,0.42-5.82h-0.33l-1.25,5.82Z"/><path class="cls-2" d="M69.61,331.92H35l3.12-22.53,3.47-.17L52.11,234H48.29l-1.56,6.93H31.14l4.33-30.32H103l-4.33,30.32H83.12L83.64,234H79.83l-10.57,75.2,3.47,0.17Z"/><path class="cls-2" d="M164.91,331.92H130.26l3.12-22.53,3.47-.17,3.81-27.55H128.52l-3.81,27.55,3.47,0.17-3.12,22.53H90.4l3.12-22.53,3.47-.17,10.57-75.72-3.29-.35,3.12-22.53H142l-3.12,22.53-3.64.35-3.46,24.78h12.13l3.47-24.78-3.29-.35,3.12-22.53h34.66l-3.12,22.53-3.64.35-10.57,75.72,3.47,0.17Z"/><path class="cls-2" d="M236.65,301.6l-4.16,30.32H170.11l3.12-22.53,3.47-.17,10.57-75.72-3.29-.35,3.12-22.53h60.65l-4.33,30.32H224.35l0.52-6.93H215l-3.47,24.26h27.72L236,281.67H208.23l-3.81,26.86H216l1.56-6.93h19.06Z"/><path class="cls-2" d="M337.33,331.92H302.67l3.12-22.53,3.47-.17,3.81-27.55H300.94l-3.81,27.55,3.47,0.17-3.12,22.53H262.82l3.12-22.53,3.46-.17L280,233.5l-3.29-.35,3.12-22.53h34.66l-3.12,22.53-3.64.35-3.47,24.78h12.13l3.47-24.78-3.29-.35,3.12-22.53h34.65l-3.12,22.53-3.64.35L337,309.22l3.47,0.17Z"/><path class="cls-2" d="M389.31,233.15l-2.77.17-8,57c-2.08,15.59-1.91,19.93,3.29,19.93s6.76-4.33,8.84-19.93l8-57-2.43-.17,3.12-22.53H434l-3.12,22.53-3.64.35-8,56.84c-2.6,19.06-6.07,43.32-40.72,43.32S347.38,309.39,350,290.33l8-56.84-3.29-.35,3.12-22.53h34.66Z"/><path class="cls-2" d="M455.16,331.92H420.51l3.12-22.53,3.46-.17,10.57-75.72-3.29-.35,3.12-22.53h32.06l6.76,39.85,0.87,12.13h0.69l2.08-20.79,1-8.32-3.29-.35,3.12-22.53h34.65l-3.12,22.53-3.64.35L495,331.92H466.42l-6.24-43.32-1-12.13h-0.69l-1.91,20.79-1.73,12,3.47,0.17Z"/><path class="cls-2" d="M189.39,399l-0.25,3.33h1.41a5.47,5.47,0,0,0,5.74-5c0.5-3.33-1.66-5.91-3.91-7.49-6.82-4.66-9.48-10-8.15-19.13,1.66-12.06,11-16.22,19.3-16.22,4.57,0,6.9.91,10.9,2.5l-1.83,12.89h-9.15l0.25-3.33h-0.58a4.92,4.92,0,0,0-5.24,4.57c-0.5,3.74,3.33,6.16,4.41,7.07,7.07,5.74,9.23,11.23,8.07,19.55-1.58,11.65-9,16.64-19,16.64a35.65,35.65,0,0,1-13-2.5L180.24,399h9.15Z"/><path class="cls-2" d="M246.86,413.6H230.23l1.5-10.81,1.66-.08,1.83-13.23H229.4l-1.83,13.23,1.66,0.08-1.5,10.81H211.09l1.5-10.81,1.66-.08,5.07-36.35-1.58-.17,1.5-10.81h16.64l-1.5,10.81-1.75.17L231,378.25h5.82l1.66-11.9-1.58-.17,1.5-10.81H255l-1.5,10.81-1.75.17L246.7,402.7l1.66,0.08Z"/><path class="cls-2" d="M287.12,384.49c-2.33,16.64-4.24,29.95-20.88,29.95s-14.72-13.31-12.39-29.95c2.25-16.3,4.16-29.95,20.8-29.95S289.37,368.18,287.12,384.49Zm-19.55,0c-2.33,16.64-2.25,18.72.25,18.72s3.24-2.08,5.57-18.72,2.16-18.72-.33-18.72S269.9,367.85,267.57,384.49Z"/><path class="cls-2" d="M347.92,366.18l-1.41.17L333.28,414H315.4l0.33-16.64,0.5-6.66H315.9l-1.33,6.66L310.41,414H292.94l-0.33-47.66-1.25-.17,1.5-10.81h16.64L308,366.18l-1.5.17-1.33,21.46-0.5,6.66H305l1.33-6.66,7.32-32.44h15l-1.83,32.44-0.5,6.66h0.33l1.33-6.66,4.66-21.46-1.33-.17,1.5-10.81h16.64Z"/></svg>