<svg id="Livello_1" data-name="Livello 1" xmlns="http://www.w3.org/2000/svg" viewBox="0 0 546.6 546.6"><defs><style>.cls-1{fill:#f15a24;}.cls-2{fill:#662d91;}</style></defs><title>partner-logo</title><circle class="cls-1" cx="273.3" cy="273.3" r="273.3"/><path class="cls-2" d="M140,120.76l-8.24,3.35c0-4.12-3.26-9.2-7.28-9.2s-6.81,4-6.81,8.15c0,5.18,10.06,14.67,17.54,23.39,4.41,5.18,6.13,10.06,6.13,14.67,0,11-7,19.84-16.49,19.84a17.21,17.21,0,0,1-17-17.16c0-.57.19-1.15,0.19-1.63l8.91-4.51a23.37,23.37,0,0,0-.1,2.59c0,7.86,2.88,11.21,7.38,11.21,3.93,0,7.09-3.93,7.09-8,0-8.72-9.58-16.29-17-24.63a23,23,0,0,1-5.85-15.62c0-9.87,6.33-17.06,15.91-17.06C132.26,106.19,138.77,113.28,140,120.76Z"/><path class="cls-2" d="M180.95,106.19v60.1a15.45,15.45,0,0,1-15.24,15.14,15.16,15.16,0,0,1-15-15.14v-60.1h10v60.19a5.71,5.71,0,0,0,5.46,5.75,5.59,5.59,0,0,0,5.46-5.75V106.19h9.39Z"/><path class="cls-2" d="M193,106.09h13.32c11.21,0,18.69,8.91,18.69,19.75,0,8.15-3.07,13.9-9.3,17.44C222,145.49,226,152.67,226,161c0,11.6-7.09,19.94-17.44,19.94H193V106.09Zm8.63,10.16v22.33h5.94c4.89,0,8.34-5.37,8.34-11.69,0-5.66-2.88-10.64-8.34-10.64h-5.94Zm0,56h5.94c5.46,0,9-5.08,9-11.31,0-5.75-4.12-12.94-9-12.94h-5.94v24.25Z"/><path class="cls-2" d="M265.68,106.19v60.1a15.45,15.45,0,0,1-15.24,15.14,15.16,15.16,0,0,1-15-15.14v-60.1h10v60.19a5.72,5.72,0,0,0,5.46,5.75,5.59,5.59,0,0,0,5.46-5.75V106.19h9.39Z"/><path class="cls-2" d="M277.75,106.19h9.3c14.38,0,22.14,8.34,22.14,22.43,0,6.61-3.16,13.61-7.76,17.16L309.48,181H299.7l-7.09-32.78c-1.05.1-2.3,0.29-3.64,0.29-0.67,0-1.25-.19-1.92-0.19V181h-9.3V106.19Zm9.3,32.78c9.39,0,13-3.74,13-11.21,0-6.33-3.74-11.89-13-11.89V139Z"/><path class="cls-2" d="M318,106.09h13.32c11.21,0,18.69,8.91,18.69,19.75,0,8.15-3.07,13.9-9.3,17.44C347,145.49,351,152.67,351,161c0,11.6-7.09,19.94-17.44,19.94H318V106.09Zm8.63,10.16v22.33h5.94c4.89,0,8.34-5.37,8.34-11.69,0-5.66-2.88-10.64-8.34-10.64h-5.94Zm0,56h5.94c5.46,0,9-5.08,9-11.31,0-5.75-4.12-12.94-9-12.94h-5.94v24.25Z"/><path class="cls-2" d="M369.58,106.19h9.58L393.64,181h-9.58l-1.92-9.3H367.37l-1.53,9.3H356ZM369,162.64h11.21l-5.56-31.44Z"/><path class="cls-2" d="M401.4,106.19H411l9.58,35.56V106.19h8.72V181h-9.59l-9.2-35.75V181H401.4V106.19Z"/><path class="cls-2" d="M49.72,206.2H67.8V333.5h40.26v18.08H49.72V206.2Z"/><path class="cls-2" d="M183.55,279.82c0,40.82-13.23,72.69-33.18,72.69-19.57,0-33-31.69-33-72.69,0-40.63,13.42-72.69,33-72.69C170.32,207.13,183.55,239.19,183.55,279.82Zm-48.46,0c0,30.76,5.59,53.68,14.35,53.68,9.13,0,15.84-23.67,15.84-53.68s-6.71-53.49-15.84-53.49C140.68,226.33,135.09,249.07,135.09,279.82Z"/><path class="cls-2" d="M260.72,206.2V323.07c0,15.84-13.61,29.45-29.64,29.45a29.47,29.47,0,0,1-29.26-29.45V206.2h19.38V323.25c0,6,4.85,11.18,10.62,11.18,6.15,0,10.62-5.22,10.62-11.18V206.2h18.27Z"/><path class="cls-2" d="M284.2,206.2h18.64l18.64,69.15V206.2h17V351.58H319.81l-17.89-69.52v69.52H284.2V206.2Z"/><path class="cls-2" d="M416.73,237l-16.59,5.59c-3-12.12-6.15-18.08-9.69-18.08-8.39,0-14.17,24.23-14.17,54.61,0,30.57,5.78,52.38,14.17,52.38s12.49-12.49,12.49-38.21c0-3.36-.37-6.9-0.37-10.62h-14V264.35h31.69c0,61.51-8,87.23-29.26,87.23-20.5,0-34.48-33-34.48-72.69,0-41.38,14-72.69,35.23-72.69C403.31,206.38,411.7,216.82,416.73,237Z"/><path class="cls-2" d="M438.54,206.2h55.55v19.57H457v41.57h27.4v18.08H457v47.72h39.89v18.45H438.54V206.2Z"/><path class="cls-2" d="M114.09,377.28h8.11l8.11,30.08V377.28h7.38v63.23h-8.11l-7.78-30.24v30.24h-7.7V377.28Z"/><path class="cls-2" d="M148.22,377.28h24.16v8.51H156.24v18.08h11.92v7.86H156.24v20.75h17.35v8H148.22V377.28Z"/><path class="cls-2" d="M188.59,377.28h8.11l12.24,63.23h-8.11l-1.62-7.86H186.72l-1.3,7.86h-8.35ZM188.1,425h9.48l-4.7-26.59Z"/><path class="cls-2" d="M215.5,377.28h7.86c12.16,0,18.73,7.05,18.73,19,0,5.59-2.67,11.51-6.57,14.51l6.81,29.75h-8.27l-6-27.72c-0.89.08-1.95,0.24-3.08,0.24-0.57,0-1.05-.16-1.62-0.16v27.64H215.5V377.28ZM223.37,405c7.94,0,11-3.16,11-9.48,0-5.35-3.16-10.05-11-10.05V405Z"/><path class="cls-2" d="M270.71,377.28h24.16v8.51H278.73v18.08h11.92v7.86H278.73v20.75h17.35v8H270.71V377.28Z"/><path class="cls-2" d="M327.77,389.6l-7,2.84c0-3.49-2.76-7.78-6.16-7.78s-5.76,3.4-5.76,6.89c0,4.38,8.51,12.4,14.83,19.78,3.73,4.38,5.19,8.51,5.19,12.4,0,9.32-5.92,16.78-13.94,16.78A14.56,14.56,0,0,1,300.62,426c0-.49.16-1,0.16-1.38l7.54-3.81a19.75,19.75,0,0,0-.08,2.19c0,6.65,2.43,9.48,6.24,9.48,3.32,0,6-3.32,6-6.73,0-7.38-8.11-13.78-14.35-20.83a19.49,19.49,0,0,1-4.94-13.21c0-8.35,5.35-14.43,13.46-14.43C321.21,377.28,326.72,383.28,327.77,389.6Z"/><path class="cls-2" d="M336.77,377.28h7.78v26.35h10.21V377.28h7.78v63.23h-7.78V411.65H344.55v28.86h-7.78V377.28Z"/><path class="cls-2" d="M373.09,377.28h24.16v8.51H381.11v18.08H393v7.86H381.11v20.75h17.35v8H373.09V377.28Z"/><path class="cls-2" d="M405.68,377.28h7.86c12.16,0,18.73,7.05,18.73,19,0,5.59-2.67,11.51-6.57,14.51l6.81,29.75h-8.27l-6-27.72c-0.89.08-1.95,0.24-3.08,0.24-0.57,0-1.05-.16-1.62-0.16v27.64h-7.86V377.28ZM413.54,405c7.94,0,11-3.16,11-9.48,0-5.35-3.16-10.05-11-10.05V405Z"/></svg>