<?xml version="1.0" encoding="utf-8"?>
<!-- Generator: Adobe Illustrator 19.2.0, SVG Export Plug-In . SVG Version: 6.00 Build 0)  -->
<svg version="1.1" id="Livello_1" xmlns="http://www.w3.org/2000/svg" xmlns:xlink="http://www.w3.org/1999/xlink" x="0px" y="0px"
	 viewBox="0 0 192.2 25.9" style="enable-background:new 0 0 192.2 25.9;" xml:space="preserve">
<style type="text/css">
	.st0{fill:#ED1E79;}
</style>
<g>
	<path class="st0" d="M16.5,18.4c0,1.1-0.2,2.1-0.7,3s-1.1,1.7-1.9,2.4c-0.8,0.7-1.7,1.2-2.8,1.6c-1.1,0.4-2.3,0.6-3.6,0.6
		c-1.1,0-2.1-0.2-3-0.6c-0.9-0.4-1.7-0.9-2.4-1.5c-0.7-0.6-1.2-1.4-1.6-2.2C0.2,20.8,0,19.9,0,19c0-1.3,0.3-2.4,0.9-3.5
		c0.6-1.1,1.4-2,2.4-2.7c-0.9-0.8-1.5-1.7-1.9-2.7C1,9,0.8,7.9,0.8,6.8c0-1.2,0.2-2.2,0.7-3.1s1-1.6,1.8-2.1c0.7-0.6,1.5-1,2.4-1.2
		C6.6,0.1,7.5,0,8.4,0c0.8,0,1.6,0.1,2.4,0.3c0.8,0.2,1.4,0.5,2,0.9c0.6,0.4,1.1,0.8,1.4,1.4c0.4,0.5,0.5,1.1,0.5,1.8
		c0,0.2-0.1,0.4-0.2,0.6c-0.1,0.2-0.4,0.4-0.7,0.5L8.1,8.2c0,0-0.1,0-0.1,0c0,0-0.1,0-0.1,0c0,0-0.1,0-0.2,0c-0.1,0-0.2-0.1-0.3-0.2
		C7.2,8,7.1,7.9,7.1,7.8C7,7.7,7,7.6,6.9,7.5c0-0.1,0-0.2,0-0.2c0-0.1,0-0.1,0.1-0.2C7,6.9,7.1,6.8,7.3,6.8c0.1-0.1,0.4-0.2,0.8-0.4
		c0.4-0.2,0.8-0.4,1.2-0.7c0.5-0.3,1-0.6,1.6-0.9c0,0,0.1-0.1,0.2-0.1c0.1-0.1,0.2-0.2,0.2-0.3c0-0.4-0.1-0.7-0.3-1.1
		c-0.2-0.3-0.4-0.6-0.7-0.9C10,2.1,9.6,1.9,9.2,1.7C8.8,1.6,8.4,1.5,8,1.5c-0.4,0-0.9,0.1-1.3,0.3C6.3,2,5.9,2.3,5.6,2.7
		S5,3.7,4.8,4.4S4.4,6,4.4,7c0,0.8,0.1,1.6,0.4,2.3s0.7,1.5,1.4,2.1c0.4-0.1,0.8-0.2,1.2-0.3C7.9,11,8.3,11,8.7,11
		c1,0,1.8,0.2,2.2,0.5c0.5,0.3,0.7,0.7,0.7,1.2c0,0.2-0.1,0.5-0.2,0.7c-0.1,0.2-0.4,0.4-0.6,0.6c-0.3,0.2-0.6,0.3-1,0.4
		c-0.4,0.1-0.9,0.2-1.5,0.2c-0.5,0-0.9,0-1.3-0.1c-0.4-0.1-0.8-0.2-1.2-0.3c-0.5,0.6-0.9,1.2-1.3,1.9c-0.3,0.7-0.5,1.4-0.5,2.2
		c0,0.6,0.1,1.3,0.4,1.9c0.3,0.7,0.6,1.3,1.1,1.8c0.4,0.6,0.9,1,1.5,1.4C7.6,23.8,8.1,24,8.6,24c0.7,0,1.3-0.2,1.8-0.6
		s1-0.9,1.4-1.5s0.7-1.3,0.9-2c0.2-0.7,0.3-1.5,0.3-2.1c0-0.4,0.1-0.7,0.3-0.9c0.2-0.3,0.5-0.4,1-0.4c0.3,0,0.5,0,0.8,0.1
		c0.3,0.1,0.5,0.2,0.7,0.3c0.2,0.1,0.4,0.3,0.5,0.5c0.1,0.2,0.2,0.4,0.2,0.6c0,0.1,0,0.1,0,0.2S16.5,18.3,16.5,18.4z"/>
	<path class="st0" d="M37.5,16.5c0,0.1,0,0.2,0,0.3c-0.4,0.5-0.7,1-1.2,1.6c-0.4,0.5-0.9,1-1.3,1.5c-0.4,0.4-0.9,0.8-1.3,1.1
		c-0.4,0.3-0.8,0.4-1.2,0.4c-0.3,0-0.5-0.1-0.7-0.2s-0.4-0.4-0.6-0.8c-0.2-0.4-0.3-0.8-0.4-1.4c-0.1-0.6-0.1-1.3-0.1-2.2
		c0-0.4,0-0.8,0-1.3s0-1-0.1-1.4c0-0.4-0.1-0.8-0.2-1.1c-0.1-0.3-0.2-0.5-0.3-0.5c-0.3,0-0.6,0.2-0.9,0.5c-0.3,0.3-0.6,0.7-0.9,1.1
		c-0.3,0.4-0.5,0.9-0.7,1.3c-0.2,0.5-0.3,0.8-0.3,1.1c0,0.1,0,0.2,0,0.4s0,0.4,0,0.8c0,0.3,0,0.8,0,1.3s0,1.2,0,2c0,0.1,0,0.2,0,0.3
		c-0.1,0.2-0.2,0.3-0.3,0.3h-1.8c-0.3,0-0.6,0-0.8,0c-0.1,0-0.2,0-0.2,0c0,0-0.1-0.1-0.1-0.1c0-0.1-0.1-0.2-0.1-0.3
		c0-0.5,0-1.1-0.1-1.7c0-0.5-0.1-1.1-0.1-1.7c0-0.6,0-1.3,0-2c0-0.4,0-0.8,0-1.1c0-0.4,0-0.7-0.1-1c0-0.3-0.1-0.5-0.2-0.7
		c-0.1-0.2-0.2-0.2-0.3-0.2c-0.3,0-0.6,0.1-0.9,0.4c-0.3,0.3-0.6,0.6-0.9,1s-0.5,0.8-0.6,1.3c-0.2,0.4-0.3,0.8-0.3,1.1
		c0,0.1,0,0.2,0,0.4c0,0.1,0,0.4,0,0.7s0,0.7,0.1,1.3c0,0.5,0.1,1.3,0.1,2.1c0,0.1,0,0.2,0,0.3c-0.1,0.2-0.2,0.3-0.3,0.3h-1.8
		c-0.3,0-0.6,0-0.9,0c-0.1,0-0.2,0-0.2,0c0,0-0.1-0.1-0.1-0.1c0-0.1-0.1-0.2-0.1-0.3c0-0.5,0-1.1-0.1-1.7c0-0.5-0.1-1.1-0.1-1.7
		c0-0.6,0-1.3,0-2c0-0.5,0-1.1,0-1.7c0-0.6,0-1.1,0-1.6s0-0.9,0-1.2s0-0.5,0-0.6c0-0.1,0.1-0.2,0.2-0.3c0.1-0.1,0.2-0.2,0.4-0.2
		c0.1,0,0.3,0,0.5-0.1c0.2,0,0.5-0.1,0.7-0.1c0.3,0,0.5-0.1,0.7-0.1c0.2,0,0.4,0,0.4,0c0.3,0,0.5,0.1,0.5,0.4c0,0.1,0,0.3-0.1,0.6
		c0,0.2-0.1,0.5-0.1,0.8s-0.1,0.5-0.1,0.8c0,0.3,0,0.5,0,0.7c0,0.2,0,0.3,0,0.4c0.8-1.2,1.5-2.2,2.3-2.8c0.8-0.6,1.5-0.9,2.2-0.9
		c0.7,0,1.2,0.3,1.6,0.9c0.4,0.6,0.6,1.6,0.6,2.9c0.2-0.5,0.6-1,0.9-1.5c0.4-0.5,0.8-0.9,1.2-1.3c0.4-0.4,0.9-0.7,1.4-0.9
		s0.9-0.3,1.3-0.3c0.5,0,0.9,0.2,1.2,0.6s0.5,1.1,0.6,2c0,1.2,0.1,2.2,0.1,3c0,0.7,0.1,1.3,0.2,1.7c0.1,0.4,0.2,0.6,0.3,0.8
		c0.1,0.1,0.2,0.2,0.4,0.2c0.4,0,0.8-0.1,1.1-0.5c0.3-0.3,0.6-0.8,0.9-1.3c0,0,0.1,0,0.1,0c0.1,0,0.2,0.1,0.3,0.3
		C37.5,16.1,37.5,16.3,37.5,16.5z"/>
	<path class="st0" d="M57.1,16.5c0,0.1,0,0.2,0,0.3c-0.4,0.5-0.7,1-1.2,1.6s-0.9,1-1.3,1.5c-0.4,0.4-0.9,0.8-1.3,1.1
		c-0.4,0.3-0.8,0.4-1.2,0.4c-0.3,0-0.5-0.1-0.7-0.2c-0.2-0.2-0.4-0.4-0.6-0.8c-0.2-0.4-0.3-0.8-0.4-1.4c-0.1-0.6-0.1-1.3-0.1-2.2
		c0-0.4,0-0.8,0-1.3c0-0.5,0-1-0.1-1.4c0-0.4-0.1-0.8-0.2-1.1c-0.1-0.3-0.2-0.5-0.3-0.5c-0.3,0-0.6,0.2-0.9,0.5s-0.6,0.7-0.9,1.1
		c-0.3,0.4-0.5,0.9-0.7,1.3s-0.3,0.8-0.3,1.1c0,0.1,0,0.2,0,0.4s0,0.4,0,0.8s0,0.8,0,1.3c0,0.5,0,1.2,0,2c0,0.1,0,0.2,0,0.3
		c-0.1,0.2-0.2,0.3-0.3,0.3h-1.8c-0.3,0-0.6,0-0.8,0c-0.1,0-0.2,0-0.2,0c0,0-0.1-0.1-0.1-0.1c0-0.1-0.1-0.2-0.1-0.3
		c0-0.5,0-1.1-0.1-1.7c0-0.5-0.1-1.1-0.1-1.7c0-0.6,0-1.3,0-2c0-0.4,0-0.8,0-1.1c0-0.4,0-0.7-0.1-1c0-0.3-0.1-0.5-0.2-0.7
		c-0.1-0.2-0.2-0.2-0.3-0.2c-0.3,0-0.6,0.1-0.9,0.4c-0.3,0.3-0.6,0.6-0.9,1c-0.3,0.4-0.5,0.8-0.6,1.3c-0.2,0.4-0.3,0.8-0.3,1.1
		c0,0.1,0,0.2,0,0.4s0,0.4,0,0.7c0,0.3,0,0.7,0.1,1.3c0,0.5,0.1,1.3,0.1,2.1c0,0.1,0,0.2,0,0.3c-0.1,0.2-0.2,0.3-0.3,0.3h-1.8
		c-0.3,0-0.6,0-0.9,0c-0.1,0-0.2,0-0.2,0c0,0-0.1-0.1-0.1-0.1c0-0.1-0.1-0.2-0.1-0.3c0-0.5,0-1.1-0.1-1.7c0-0.5-0.1-1.1-0.1-1.7
		c0-0.6,0-1.3,0-2c0-0.5,0-1.1,0-1.7c0-0.6,0-1.1,0-1.6c0-0.5,0-0.9,0-1.2c0-0.3,0-0.5,0-0.6c0-0.1,0.1-0.2,0.2-0.3
		c0.1-0.1,0.2-0.2,0.4-0.2c0.1,0,0.3,0,0.5-0.1c0.2,0,0.5-0.1,0.7-0.1c0.3,0,0.5-0.1,0.7-0.1c0.2,0,0.4,0,0.4,0
		c0.3,0,0.5,0.1,0.5,0.4c0,0.1,0,0.3-0.1,0.6c0,0.2-0.1,0.5-0.1,0.8c0,0.3-0.1,0.5-0.1,0.8s0,0.5,0,0.7c0,0.2,0,0.3,0,0.4
		c0.8-1.2,1.5-2.2,2.3-2.8c0.8-0.6,1.5-0.9,2.2-0.9c0.7,0,1.2,0.3,1.6,0.9s0.6,1.6,0.6,2.9c0.2-0.5,0.6-1,0.9-1.5
		c0.4-0.5,0.8-0.9,1.2-1.3c0.4-0.4,0.9-0.7,1.4-0.9s0.9-0.3,1.3-0.3c0.5,0,0.9,0.2,1.2,0.6c0.3,0.4,0.5,1.1,0.6,2
		c0,1.2,0.1,2.2,0.1,3c0,0.7,0.1,1.3,0.2,1.7s0.2,0.6,0.3,0.8s0.2,0.2,0.4,0.2c0.4,0,0.8-0.1,1.1-0.5c0.3-0.3,0.6-0.8,0.9-1.3
		c0,0,0.1,0,0.1,0c0.1,0,0.2,0.1,0.3,0.3C57.1,16.1,57.1,16.3,57.1,16.5z"/>
	<path class="st0" d="M70.5,16.5c0,0.1,0,0.2,0,0.3c-0.7,0.8-1.3,1.6-1.9,2.3c-0.3,0.3-0.5,0.6-0.8,0.8s-0.6,0.5-0.8,0.7
		c-0.3,0.2-0.5,0.4-0.8,0.5c-0.2,0.1-0.5,0.2-0.7,0.2c-0.5,0-1-0.3-1.3-0.8c-0.3-0.5-0.5-1.1-0.6-1.8c0,0-0.1,0.1-0.2,0.3
		c-0.1,0.2-0.3,0.3-0.6,0.5c-0.2,0.2-0.5,0.4-0.8,0.6s-0.6,0.4-0.9,0.6c-0.3,0.2-0.6,0.3-0.9,0.5c-0.3,0.1-0.6,0.2-0.8,0.2
		c-0.5,0-0.9-0.1-1.3-0.4c-0.4-0.2-0.7-0.6-1-1c-0.3-0.4-0.5-0.9-0.7-1.4c-0.2-0.5-0.2-1.1-0.2-1.7c0-0.8,0.2-1.7,0.5-2.6
		c0.4-0.9,0.9-1.7,1.8-2.4c0.8-0.7,1.9-1.3,3.2-1.8c1.3-0.5,2.9-0.7,4.8-0.7c0.1,0,0.1,0,0.2,0.1c0,0,0.1,0.1,0.1,0.1
		c0,0.1,0,0.1,0,0.3v6.6c0,0.1,0,0.3,0,0.4c0,0.2,0,0.3,0.1,0.4c0,0.1,0.1,0.2,0.2,0.3s0.2,0.1,0.4,0.1c0.3,0,0.6-0.1,0.9-0.3
		c0.3-0.2,0.6-0.5,0.8-0.8c0.1-0.2,0.3-0.4,0.4-0.6c0.1-0.2,0.3-0.4,0.4-0.6c0,0,0.1,0,0.1,0c0.1,0,0.2,0.1,0.3,0.3
		C70.5,16.1,70.5,16.3,70.5,16.5z M61.7,11.9c-0.5,0.3-0.9,0.7-1.2,1.2c-0.3,0.4-0.5,0.9-0.7,1.4c-0.1,0.5-0.2,1-0.2,1.5
		c0,0.4,0,0.8,0.1,1.1c0.1,0.4,0.2,0.7,0.3,0.9c0.1,0.3,0.3,0.5,0.5,0.6c0.2,0.2,0.4,0.2,0.6,0.2c0.2,0,0.4-0.1,0.7-0.2
		c0.2-0.2,0.5-0.3,0.7-0.5c0.3-0.2,0.5-0.5,0.8-0.8c0-0.1,0.1-0.1,0.1-0.2s0-0.1,0-0.1c0-0.3,0-0.7,0-1.3c0-0.6,0-1.3,0-1.9v-2.5
		C62.8,11.4,62.2,11.6,61.7,11.9z"/>
	<path class="st0" d="M81,16.5c0,0.1,0,0.2,0,0.3c-0.4,0.6-0.8,1-1.2,1.2c-0.4,0.3-0.8,0.4-1.2,0.4c-0.1,0-0.2,0-0.3,0s-0.2,0-0.3,0
		c-0.2,0.5-0.4,0.9-0.7,1.3c-0.3,0.4-0.6,0.7-1,1c-0.4,0.3-0.7,0.5-1.1,0.6c-0.4,0.1-0.8,0.2-1.2,0.2c-0.5,0-1-0.1-1.5-0.4
		c-0.5-0.2-0.9-0.6-1.3-1.2s-0.7-1.2-0.9-2c-0.2-0.8-0.4-1.8-0.4-2.9c0-1.2,0-2.6,0.1-4.2c0-1.6,0.1-3.5,0.1-5.7
		c0-0.3,0.1-0.7,0.3-1c0.2-0.4,0.4-0.7,0.7-1.1c0.3-0.4,0.6-0.7,1-1c0.4-0.3,0.7-0.6,1.1-0.9c0.4-0.3,0.7-0.5,1-0.6
		c0.3-0.2,0.6-0.2,0.8-0.2c0.3,0,0.6,0.1,0.9,0.3c0.3,0.2,0.5,0.5,0.6,0.8s0.3,0.7,0.4,1c0.1,0.4,0.1,0.7,0.1,1
		C77.1,4.2,77,5,76.7,6c-0.3,1-0.6,1.9-1,2.8c-0.4,0.9-0.8,1.8-1.2,2.7c-0.4,0.8-0.8,1.5-1.2,2.1c0,0.1-0.1,0.2-0.1,0.2
		c0,0.1-0.1,0.2-0.1,0.3s0,0.2,0,0.3c0,0.3,0,0.8,0,1.3c0,0.5,0.1,1.1,0.2,1.6c0.1,0.5,0.4,1,0.6,1.4c0.3,0.4,0.7,0.6,1.2,0.6
		c0.2,0,0.4-0.1,0.6-0.2s0.4-0.3,0.6-0.4c0.2-0.2,0.3-0.4,0.4-0.5c0.1-0.2,0.2-0.3,0.3-0.4c-0.4-0.4-0.8-1-1-1.7
		c-0.3-0.7-0.4-1.5-0.4-2.3c0-1.3,0.3-1.9,0.9-1.9c0.4,0,0.7,0.1,0.9,0.4s0.5,0.6,0.6,1s0.3,0.8,0.3,1.3c0.1,0.5,0.1,0.9,0.1,1.3
		c0,0.5,0,1-0.1,1.5h0.2c0.2,0,0.4-0.1,0.6-0.2c0.2-0.1,0.4-0.3,0.6-0.6c0.1-0.1,0.2-0.3,0.3-0.4c0.1-0.1,0.2-0.3,0.3-0.5
		c0,0,0.1,0,0.1,0c0.1,0,0.2,0.1,0.3,0.3C81,16.1,81,16.3,81,16.5z M75,4.8c0-0.5-0.1-0.9-0.3-1.3c-0.2-0.4-0.4-0.6-0.6-0.6
		c-0.2,0-0.4,0.2-0.5,0.5c-0.1,0.3-0.2,0.7-0.3,1.2c-0.1,0.5-0.1,1-0.1,1.6c0,0.6,0,1.2,0,1.8c0,0.6,0,1.2,0,1.7c0,0.5,0,1,0,1.3
		c0,0,0.1,0,0.1-0.1l0,0c0.2-0.3,0.4-0.7,0.6-1.3c0.2-0.5,0.4-1.1,0.6-1.7c0.2-0.6,0.3-1.2,0.4-1.7S75,5.2,75,4.8z"/>
	<path class="st0" d="M94,16.5c0,0.1,0,0.2,0,0.3c-0.5,0.7-0.9,1.2-1.4,1.5c-0.5,0.3-1,0.4-1.5,0.4c-0.3,0-0.5,0-0.7-0.1
		c-0.5,0.8-1.1,1.4-1.8,1.9c-0.8,0.5-1.7,0.8-2.8,0.8c-0.9,0-1.6-0.2-2.3-0.5c-0.6-0.3-1.2-0.7-1.6-1.3c-0.4-0.5-0.7-1.1-0.9-1.8
		c-0.2-0.7-0.3-1.4-0.3-2.1c0-0.8,0.1-1.5,0.3-2.3c0.2-0.7,0.5-1.4,1-2c0.4-0.6,0.9-1,1.6-1.4s1.3-0.5,2.2-0.5
		c0.5,0,0.9,0.1,1.2,0.3c0.2,0.2,0.3,0.4,0.3,0.7c0,0.2-0.1,0.3-0.2,0.4c-0.1,0.1-0.3,0.2-0.4,0.2c-0.4,0-0.8,0.1-1.1,0.3
		s-0.6,0.5-0.8,0.8c-0.2,0.3-0.4,0.7-0.5,1.1c-0.1,0.4-0.2,0.8-0.2,1.3c0,0.5,0.1,1,0.2,1.4c0.1,0.5,0.3,0.9,0.6,1.3
		c0.3,0.4,0.6,0.7,1,0.9s0.9,0.3,1.5,0.3c0.3,0,0.6-0.1,0.9-0.2c0.3-0.1,0.5-0.3,0.7-0.5c-0.4-0.3-0.7-0.6-1-1
		c-0.3-0.4-0.5-0.8-0.7-1.2c-0.2-0.4-0.4-0.9-0.5-1.3c-0.1-0.4-0.2-0.8-0.2-1.2c0-0.6,0.1-1.1,0.4-1.5c0.3-0.4,0.7-0.6,1.3-0.6
		c0.5,0,1,0.1,1.4,0.3c0.4,0.2,0.7,0.5,1,0.9c0.3,0.4,0.5,0.8,0.6,1.3c0.1,0.5,0.2,1,0.2,1.5c0,0.8-0.2,1.6-0.5,2.5H91
		c0.3,0,0.6-0.1,0.9-0.3c0.3-0.2,0.6-0.4,0.9-0.8c0.1-0.1,0.2-0.3,0.3-0.4s0.2-0.3,0.3-0.5c0,0,0.1,0,0.1,0c0.1,0,0.2,0.1,0.3,0.3
		C93.9,16.1,94,16.3,94,16.5z M89.6,15.4c0-0.3,0-0.6-0.1-0.9c-0.1-0.3-0.2-0.6-0.3-0.8s-0.3-0.4-0.5-0.6c-0.2-0.1-0.4-0.2-0.6-0.2
		c-0.4,0-0.6,0.2-0.6,0.7c0,0.6,0.2,1.2,0.5,1.8s0.7,1.1,1.3,1.6C89.5,16.4,89.6,15.9,89.6,15.4z"/>
	<path class="st0" d="M103.7,16.5c0,0.1,0,0.2,0,0.3c-0.7,0.9-1.4,1.7-2.1,2.3c-0.7,0.6-1.4,1.1-2,1.5c-0.6,0.4-1.3,0.6-1.8,0.8
		c-0.6,0.2-1.1,0.2-1.6,0.2c-0.4,0-0.9-0.1-1.2-0.2s-0.7-0.2-0.9-0.4s-0.5-0.4-0.6-0.6c-0.1-0.2-0.2-0.4-0.2-0.6
		c0-0.2,0.1-0.5,0.2-0.7c0.1-0.2,0.3-0.4,0.4-0.6c0.2-0.2,0.3-0.3,0.5-0.4c0.2-0.1,0.3-0.1,0.5-0.1s0.3,0,0.4,0.1
		c0.1,0,0.1,0.1,0.1,0.1c0.1,0.1,0.3,0.2,0.5,0.4c0.2,0.2,0.4,0.3,0.6,0.5c0.2,0.2,0.4,0.3,0.6,0.4c0.2,0.1,0.5,0.2,0.7,0.2
		c0.3,0,0.5,0,0.7-0.1c0.2-0.1,0.3-0.4,0.3-0.9c-0.1-0.5-0.3-0.9-0.6-1.3c-0.2-0.4-0.5-0.8-0.8-1.2c-0.3-0.4-0.6-0.7-0.9-1.1
		c-0.3-0.3-0.6-0.7-0.9-1c-0.3,0.6-0.6,1.2-0.9,1.8c-0.3,0.6-0.6,1-0.8,1.2h0c0,0,0,0,0,0c0,0,0,0-0.1,0c-0.1,0-0.1,0-0.2-0.1
		c0-0.1-0.1-0.2-0.2-0.5c0-0.1-0.1-0.3-0.1-0.4c0.2-0.3,0.5-0.7,0.8-1.2s0.6-1.1,0.8-1.7c-0.3-0.4-0.5-0.8-0.6-1.3s-0.2-0.9-0.2-1.5
		c0-0.7,0.1-1.2,0.4-1.7c0.2-0.5,0.5-0.9,0.9-1.2c0.4-0.3,0.8-0.5,1.2-0.7c0.4-0.1,0.9-0.2,1.3-0.2c0.6,0,1,0.1,1.3,0.4
		c0.3,0.3,0.4,0.6,0.4,1c0,0.2-0.1,0.5-0.2,0.7C99,9,98.8,9.3,98.6,9.5c-0.2,0.2-0.5,0.4-0.9,0.5c-0.4,0.1-0.8,0.2-1.2,0.3
		c0,0.2,0.1,0.4,0.2,0.6h0l0,0c0.3,0.5,0.7,0.9,1.2,1.3c0.5,0.4,1,0.8,1.5,1.3c0.5,0.5,0.9,1,1.3,1.6c0.4,0.6,0.5,1.4,0.5,2.3
		c0,0.1,0,0.2,0,0.3s0,0.1,0,0.2c0.5-0.2,0.9-0.6,1.2-1c0.3-0.4,0.6-0.8,0.9-1.3c0,0,0.1,0,0.1,0c0.1,0,0.2,0.1,0.3,0.3
		C103.7,16.1,103.7,16.3,103.7,16.5z"/>
	<path class="st0" d="M116.7,16.5c0,0.1,0,0.2,0,0.3c-0.4,0.5-0.7,1-1.2,1.6s-0.9,1-1.3,1.5c-0.4,0.4-0.9,0.8-1.3,1.1
		c-0.4,0.3-0.8,0.4-1.2,0.4c-0.3,0-0.5-0.1-0.7-0.2s-0.4-0.4-0.6-0.8c-0.2-0.4-0.3-0.8-0.4-1.4c-0.1-0.6-0.1-1.3-0.1-2.2
		c0-0.4,0-0.8,0-1.3c0-0.5,0-0.9-0.1-1.3c0-0.4-0.1-0.8-0.2-1c-0.1-0.3-0.2-0.4-0.3-0.4c-0.3,0-0.6,0.1-0.9,0.4
		c-0.3,0.3-0.6,0.6-0.9,1c-0.3,0.4-0.5,0.8-0.6,1.3c-0.2,0.4-0.3,0.8-0.3,1.1c0,0.1,0,0.2,0,0.4s0,0.4,0,0.7c0,0.3,0,0.7,0.1,1.3
		c0,0.5,0.1,1.3,0.1,2.1c0,0.1,0,0.2,0,0.3c-0.1,0.2-0.2,0.3-0.3,0.3h-1.8c-0.3,0-0.6,0-0.9,0c-0.1,0-0.2,0-0.2,0
		c0,0-0.1-0.1-0.1-0.1c0-0.1-0.1-0.2-0.1-0.3c0-0.5,0-1.1-0.1-1.7c0-0.5-0.1-1.1-0.1-1.7c0-0.6,0-1.3,0-2c0-0.4,0-1,0-1.8
		s0-1.8,0-2.9c0-1.1,0-2.2,0-3.3c0-1.1,0-2.2,0-3.2s0-1.8,0-2.4c0-0.6,0-1,0-1c0-0.1,0.1-0.2,0.1-0.3c0.1-0.1,0.2-0.2,0.4-0.2
		c0.1,0,0.3,0,0.5-0.1c0.2,0,0.5-0.1,0.7-0.1s0.5-0.1,0.7-0.1c0.2,0,0.4,0,0.4,0c0.3,0,0.5,0.1,0.5,0.4c0,0.1,0,0.3,0,0.6
		c0,0.4,0,0.8,0,1.4c0,0.6,0,1.2,0,1.9c0,0.7,0,1.4,0,2.1c0,0.7,0,1.5,0,2.2s0,1.3,0,1.9c0,0.6,0,1.1,0,1.5c0,0.4,0,0.6,0,0.7
		c0,0.2,0,0.3,0,0.4c0.2-0.3,0.4-0.7,0.8-1.2c0.4-0.4,0.9-0.9,1.4-1.2c0.5-0.4,1-0.7,1.6-1c0.6-0.3,1.1-0.4,1.5-0.4
		c0.4,0,0.8,0.2,1.1,0.5c0.3,0.3,0.4,0.9,0.4,1.7c0,0.2,0,0.6,0,1.1s0,1,0,1.5c0,0.6,0,1.3,0,1.9c0,0.3,0.1,0.5,0.2,0.8
		c0.1,0.2,0.3,0.4,0.6,0.4c0.4,0,0.8-0.1,1.1-0.5s0.6-0.8,0.9-1.3c0,0,0.1,0,0.1,0c0.1,0,0.2,0.1,0.3,0.3
		C116.6,16.1,116.7,16.3,116.7,16.5z"/>
	<path class="st0" d="M123,16.5c0,0.1,0,0.2,0,0.3c-0.6,0.8-1.2,1.6-1.8,2.2c-0.2,0.3-0.5,0.5-0.8,0.8c-0.3,0.3-0.5,0.5-0.8,0.7
		c-0.3,0.2-0.5,0.4-0.7,0.5s-0.5,0.2-0.6,0.2c-0.4,0-0.7-0.1-1-0.4c-0.3-0.3-0.5-0.6-0.6-1c-0.2-0.4-0.3-0.9-0.3-1.5
		c-0.1-0.6-0.1-1.1-0.1-1.7c0-0.5,0-1,0-1.6c0-0.6,0-1.1,0-1.7c0-0.5,0-1,0-1.5s0-0.8,0-1c0-0.2,0-0.3,0.1-0.4s0.1-0.2,0.1-0.3
		c0.1-0.1,0.1-0.1,0.2-0.1c0.2-0.1,0.4-0.2,0.7-0.2c0.3-0.1,0.5-0.1,0.8-0.2c0.2,0,0.5-0.1,0.7-0.1s0.3,0,0.4,0c0.2,0,0.3,0,0.4,0.1
		c0.1,0.1,0.1,0.2,0.1,0.3c0,0.2,0,0.4,0,0.7c0,0.3,0,0.7,0,1.2c0,0.5,0,1.1,0,1.9c0,0.8,0,1.7,0,2.8c0,0.3,0,0.5,0.1,0.8
		c0.1,0.2,0.2,0.4,0.6,0.4c0.2,0,0.4-0.1,0.6-0.2c0.2-0.1,0.4-0.3,0.6-0.5c0.2-0.2,0.4-0.4,0.6-0.7c0.2-0.3,0.4-0.5,0.5-0.8
		c0,0,0.1,0,0.1,0c0.1,0,0.2,0.1,0.3,0.3C122.9,16.1,123,16.3,123,16.5z M120.2,5c0,0.5-0.2,1-0.6,1.3c-0.4,0.4-0.8,0.6-1.3,0.6
		c-0.5,0-1-0.2-1.3-0.6c-0.4-0.4-0.6-0.8-0.6-1.3c0-0.5,0.2-1,0.6-1.3c0.4-0.4,0.8-0.6,1.3-0.6c0.5,0,1,0.2,1.3,0.6
		S120.2,4.5,120.2,5z"/>
	<path class="st0" d="M138.7,16.5c0,0.1,0,0.2,0,0.3c-0.7,0.9-1.4,1.7-2.1,2.3c-0.7,0.6-1.4,1.1-2,1.5c-0.6,0.4-1.3,0.6-1.8,0.8
		c-0.6,0.2-1.1,0.2-1.6,0.2c-0.4,0-0.9-0.1-1.2-0.2s-0.7-0.2-0.9-0.4s-0.5-0.4-0.6-0.6c-0.1-0.2-0.2-0.4-0.2-0.6
		c0-0.2,0.1-0.5,0.2-0.7c0.1-0.2,0.3-0.4,0.4-0.6c0.2-0.2,0.3-0.3,0.5-0.4c0.2-0.1,0.3-0.1,0.5-0.1s0.3,0,0.4,0.1
		c0.1,0,0.1,0.1,0.1,0.1c0.1,0.1,0.3,0.2,0.5,0.4c0.2,0.2,0.4,0.3,0.6,0.5c0.2,0.2,0.4,0.3,0.6,0.4c0.2,0.1,0.5,0.2,0.7,0.2
		c0.3,0,0.5,0,0.7-0.1c0.2-0.1,0.3-0.4,0.3-0.9c-0.1-0.5-0.3-0.9-0.6-1.3c-0.2-0.4-0.5-0.8-0.8-1.2c-0.3-0.4-0.6-0.7-0.9-1.1
		c-0.3-0.3-0.6-0.7-0.9-1c-0.3,0.6-0.6,1.2-0.9,1.8c-0.3,0.6-0.6,1-0.8,1.2h0c0,0,0,0,0,0c0,0,0,0-0.1,0c-0.1,0-0.1,0-0.2-0.1
		c0-0.1-0.1-0.2-0.2-0.5c0-0.1-0.1-0.3-0.1-0.4c0.2-0.3,0.5-0.7,0.8-1.2s0.6-1.1,0.8-1.7c-0.3-0.4-0.5-0.8-0.6-1.3s-0.2-0.9-0.2-1.5
		c0-0.7,0.1-1.2,0.4-1.7c0.2-0.5,0.5-0.9,0.9-1.2c0.4-0.3,0.8-0.5,1.2-0.7c0.4-0.1,0.9-0.2,1.3-0.2c0.6,0,1,0.1,1.3,0.4
		c0.3,0.3,0.4,0.6,0.4,1c0,0.2-0.1,0.5-0.2,0.7c-0.1,0.2-0.3,0.5-0.5,0.6c-0.2,0.2-0.5,0.4-0.9,0.5c-0.4,0.1-0.8,0.2-1.2,0.3
		c0,0.2,0.1,0.4,0.2,0.6h0l0,0c0.3,0.5,0.7,0.9,1.2,1.3c0.5,0.4,1,0.8,1.5,1.3c0.5,0.5,0.9,1,1.3,1.6c0.4,0.6,0.5,1.4,0.5,2.3
		c0,0.1,0,0.2,0,0.3s0,0.1,0,0.2c0.5-0.2,0.9-0.6,1.2-1c0.3-0.4,0.6-0.8,0.9-1.3c0,0,0.1,0,0.1,0c0.1,0,0.2,0.1,0.3,0.3
		C138.7,16.1,138.7,16.3,138.7,16.5z"/>
	<path class="st0" d="M146.2,16.5c0,0.1,0,0.2,0,0.3c-0.4,0.5-0.8,1.1-1.2,1.6c-0.5,0.5-1,1-1.5,1.5c-0.5,0.4-1,0.8-1.5,1
		c-0.5,0.3-1,0.4-1.4,0.4c-0.3,0-0.6-0.1-0.9-0.2c-0.3-0.2-0.5-0.4-0.7-0.8c-0.2-0.4-0.4-0.9-0.5-1.5c-0.1-0.6-0.2-1.3-0.2-2.2
		c0-0.4,0-1.1,0-1.9c0-0.8,0-1.8,0.1-2.7c-0.1,0-0.2,0-0.2,0.1c0,0-0.1,0-0.1,0c-0.1,0-0.1-0.1-0.1-0.2c0-0.1,0-0.2,0-0.3
		s0-0.3,0-0.4c0-0.2,0-0.4,0-0.6c0,0,0-0.1,0-0.1c0-0.1,0.1-0.1,0.2-0.2c0,0,0.1,0,0.2-0.1c0-0.8,0.1-1.5,0.1-2.2
		c0-0.7,0.1-1.4,0.2-1.9c0.1-0.6,0.1-1,0.2-1.4c0.1-0.4,0.2-0.6,0.3-0.7c0.2-0.1,0.4-0.2,0.7-0.3c0.3-0.1,0.5-0.2,0.8-0.3
		s0.5-0.1,0.7-0.2c0.2-0.1,0.3-0.1,0.4-0.1c0.2,0,0.3,0,0.4,0.1c0.1,0.1,0.1,0.2,0.1,0.3c0,0,0,0.2,0,0.5c0,0.3,0,0.7-0.1,1.2
		c0,0.5-0.1,1.1-0.1,1.7c0,0.6-0.1,1.3-0.1,2c0.4-0.1,0.8-0.3,1.1-0.4c0.4-0.1,0.7-0.2,1-0.3c0.3-0.1,0.6-0.2,0.9-0.3
		c0,0,0.1,0,0.1,0c0,0,0.1,0,0.2,0s0.1,0,0.2,0.1c0.1,0,0.1,0.1,0.1,0.3c0,0.1,0,0.3,0,0.4c0,0.1,0,0.3,0,0.4c0,0.2,0,0.3,0,0.5
		c0,0,0,0.1-0.1,0.2c0,0-0.1,0.1-0.2,0.2s-0.2,0.1-0.3,0.2l-3,1c0,1-0.1,2.1-0.1,3c0,1,0,1.9,0,2.6c0,0.5,0.1,0.9,0.3,1.1
		c0.2,0.2,0.5,0.4,0.9,0.4c0.4,0,0.9-0.2,1.5-0.6c0.5-0.4,1-1,1.5-1.8c0,0,0,0,0.1,0c0.1,0,0.2,0.1,0.3,0.3
		C146.2,16.1,146.2,16.3,146.2,16.5z"/>
	<path class="st0" d="M159.2,16.5c0,0.1,0,0.2,0,0.3c-0.6,0.8-1.2,1.6-1.8,2.2c-0.2,0.3-0.5,0.5-0.8,0.8c-0.3,0.3-0.5,0.5-0.8,0.7
		s-0.5,0.4-0.7,0.5s-0.5,0.2-0.6,0.2c-0.6,0-1-0.2-1.3-0.7c-0.3-0.5-0.5-1.1-0.6-1.9c0,0.1-0.2,0.3-0.4,0.6c-0.2,0.3-0.6,0.7-0.9,1
		c-0.4,0.4-0.7,0.7-1.2,1s-0.8,0.4-1.2,0.4c-0.6,0-1-0.2-1.4-0.5c-0.4-0.3-0.7-0.8-1-1.3c-0.3-0.6-0.4-1.2-0.5-1.9
		c-0.1-0.7-0.1-1.4-0.1-2.2c0-0.8,0-1.5,0.1-2.2c0-0.6,0.1-1.1,0.1-1.7c0-0.6,0-0.9,0.1-1.1c0-0.2,0.1-0.4,0.2-0.5
		c0.1-0.1,0.2-0.1,0.3-0.1c0,0,0.2,0,0.4,0c0.3,0,0.5,0.1,0.8,0.1c0.3,0,0.6,0.1,0.9,0.1c0.3,0,0.5,0.1,0.5,0.1
		c0.2,0.1,0.3,0.2,0.2,0.5c0,0.2,0,0.5-0.1,0.8c0,0.3-0.1,0.7-0.1,1s-0.1,0.8-0.1,1.2c0,0.4,0,0.8,0,1.2c0,0.4,0,0.8,0.1,1.2
		s0.1,0.7,0.2,1c0.1,0.3,0.2,0.5,0.4,0.7s0.4,0.3,0.6,0.3c0.1,0,0.3-0.1,0.6-0.2c0.2-0.1,0.4-0.3,0.7-0.5s0.4-0.4,0.6-0.6
		c0.2-0.2,0.2-0.4,0.2-0.6c0-0.1,0-0.2,0-0.4s0-0.4,0-0.7c0-0.3,0-0.6,0-0.9c0-0.3,0-0.7,0-1v-2.7c0-0.1,0.1-0.3,0.1-0.4
		c0.1-0.1,0.2-0.2,0.3-0.3c0.1-0.1,0.3-0.1,0.5-0.1c0.2,0,0.5,0,0.7,0c0.3,0,0.5,0,0.7,0.1c0.3,0,0.5,0.1,0.8,0.1c0,0,0.1,0,0.1,0
		c0,0,0.1,0.1,0.1,0.2s0,0.2,0,0.3c0,0,0,0.1,0,0.3c0,0.2,0,0.4,0,0.7c0,0.3,0,0.6,0,0.9c0,0.3,0,0.7,0,1c0,0.8-0.1,1.7-0.1,2.7
		c0,0.1,0,0.3,0,0.5c0,0.2,0.1,0.3,0.1,0.5c0.1,0.1,0.1,0.3,0.2,0.4s0.2,0.2,0.4,0.2c0.2,0,0.4-0.1,0.6-0.2c0.2-0.1,0.4-0.3,0.6-0.5
		c0.2-0.2,0.4-0.4,0.6-0.7c0.2-0.3,0.4-0.5,0.5-0.8c0,0,0.1,0,0.1,0c0.1,0,0.2,0.1,0.3,0.3C159.2,16.1,159.2,16.3,159.2,16.5z"/>
	<path class="st0" d="M173,16.5c0,0.1,0,0.2,0,0.3c-0.6,0.8-1.2,1.6-1.8,2.2c-0.2,0.3-0.5,0.5-0.8,0.8c-0.3,0.3-0.5,0.5-0.8,0.7
		c-0.3,0.2-0.5,0.4-0.7,0.5c-0.2,0.1-0.5,0.2-0.6,0.2c-0.3,0-0.6-0.1-0.8-0.3c-0.2-0.2-0.4-0.4-0.6-0.7s-0.3-0.6-0.4-1
		c-0.1-0.4-0.2-0.8-0.2-1.2c-0.1,0-0.3,0.2-0.6,0.6c-0.3,0.4-0.7,0.7-1.1,1.1c-0.4,0.4-0.9,0.8-1.3,1.1c-0.5,0.3-0.9,0.5-1.2,0.5
		c-0.6,0-1.1-0.1-1.5-0.4s-0.8-0.6-1.1-1.1c-0.3-0.4-0.5-0.9-0.6-1.5c-0.1-0.6-0.2-1.2-0.2-1.8c0-0.8,0.1-1.7,0.4-2.6
		c0.2-0.9,0.6-1.6,1.1-2.3c0.5-0.7,1.1-1.3,1.9-1.7c0.7-0.4,1.6-0.7,2.6-0.7c0.1,0,0.2,0,0.4,0c0.2,0,0.5,0,1.1,0.1
		c0-0.8,0-1.6,0-2.3c0-0.6,0-1.3,0-2c0-0.7,0-1.3,0-1.8c0,0,0-0.1,0-0.2s0.1-0.2,0.2-0.3c0.1-0.1,0.3-0.2,0.5-0.3
		c0.2-0.1,0.5-0.1,0.9-0.1h0.7c0.4,0,0.7,0,0.9,0.1s0.3,0.1,0.3,0.3c-0.1,1.6-0.2,3.2-0.2,4.8s-0.1,3.1-0.1,4.4c0,1,0,1.8,0,2.6
		c0,0.8,0,1.4,0.1,1.9c0,0.3,0.1,0.5,0.2,0.8c0.1,0.2,0.3,0.4,0.6,0.4c0.2,0,0.4-0.1,0.6-0.2c0.2-0.1,0.4-0.3,0.6-0.5
		c0.2-0.2,0.4-0.4,0.6-0.7s0.4-0.5,0.5-0.8c0,0,0.1,0,0.1,0c0.1,0,0.2,0.1,0.3,0.3C173,16.1,173,16.3,173,16.5z M166,11.3
		c-0.1-0.1-0.3-0.2-0.5-0.2c-0.2-0.1-0.4-0.1-0.4-0.1c-0.5,0-1,0.1-1.3,0.4c-0.4,0.3-0.7,0.6-0.9,1.1c-0.2,0.4-0.4,0.9-0.6,1.5
		S162,15,162,15.6c0,0.7,0.1,1.4,0.3,1.9c0.2,0.5,0.6,0.8,1,0.8c0.2,0,0.4-0.1,0.6-0.2c0.2-0.2,0.5-0.3,0.7-0.5
		c0.2-0.2,0.4-0.4,0.6-0.6c0.2-0.2,0.3-0.3,0.4-0.4c0,0,0-0.1,0.1-0.1c0-0.1,0.1-0.2,0.1-0.4V11.3z"/>
	<path class="st0" d="M179.3,16.5c0,0.1,0,0.2,0,0.3c-0.6,0.8-1.2,1.6-1.8,2.2c-0.2,0.3-0.5,0.5-0.8,0.8c-0.3,0.3-0.5,0.5-0.8,0.7
		s-0.5,0.4-0.7,0.5c-0.2,0.1-0.5,0.2-0.6,0.2c-0.4,0-0.7-0.1-1-0.4c-0.3-0.3-0.5-0.6-0.6-1s-0.3-0.9-0.3-1.5
		c-0.1-0.6-0.1-1.1-0.1-1.7c0-0.5,0-1,0-1.6c0-0.6,0-1.1,0-1.7c0-0.5,0-1,0-1.5c0-0.4,0-0.8,0-1c0-0.2,0-0.3,0.1-0.4
		s0.1-0.2,0.1-0.3c0.1-0.1,0.1-0.1,0.2-0.1c0.2-0.1,0.4-0.2,0.7-0.2c0.3-0.1,0.5-0.1,0.8-0.2c0.2,0,0.5-0.1,0.7-0.1
		c0.2,0,0.3,0,0.4,0c0.2,0,0.3,0,0.4,0.1c0.1,0.1,0.1,0.2,0.1,0.3c0,0.2,0,0.4,0,0.7c0,0.3,0,0.7,0,1.2s0,1.1,0,1.9
		c0,0.8,0,1.7,0,2.8c0,0.3,0,0.5,0.1,0.8c0.1,0.2,0.2,0.4,0.6,0.4c0.2,0,0.4-0.1,0.6-0.2c0.2-0.1,0.4-0.3,0.6-0.5
		c0.2-0.2,0.4-0.4,0.6-0.7c0.2-0.3,0.4-0.5,0.5-0.8c0,0,0.1,0,0.1,0c0.1,0,0.2,0.1,0.3,0.3C179.2,16.1,179.3,16.3,179.3,16.5z
		 M176.6,5c0,0.5-0.2,1-0.6,1.3c-0.4,0.4-0.8,0.6-1.3,0.6c-0.5,0-1-0.2-1.3-0.6C173,6,172.8,5.5,172.8,5c0-0.5,0.2-1,0.6-1.3
		s0.8-0.6,1.3-0.6c0.5,0,1,0.2,1.3,0.6S176.6,4.5,176.6,5z"/>
	<path class="st0" d="M192.2,16.5c0,0.1,0,0.2,0,0.3c-0.5,0.7-0.9,1.2-1.4,1.5c-0.5,0.3-1,0.4-1.5,0.4c-0.3,0-0.5,0-0.7-0.1
		c-0.5,0.8-1.1,1.4-1.8,1.9c-0.8,0.5-1.7,0.8-2.8,0.8c-0.9,0-1.6-0.2-2.3-0.5c-0.6-0.3-1.2-0.7-1.6-1.3c-0.4-0.5-0.7-1.1-0.9-1.8
		c-0.2-0.7-0.3-1.4-0.3-2.1c0-0.8,0.1-1.5,0.3-2.3c0.2-0.7,0.5-1.4,1-2c0.4-0.6,0.9-1,1.6-1.4s1.3-0.5,2.2-0.5
		c0.5,0,0.9,0.1,1.2,0.3c0.2,0.2,0.3,0.4,0.3,0.7c0,0.2-0.1,0.3-0.2,0.4c-0.1,0.1-0.3,0.2-0.4,0.2c-0.4,0-0.8,0.1-1.1,0.3
		s-0.6,0.5-0.8,0.8c-0.2,0.3-0.4,0.7-0.5,1.1c-0.1,0.4-0.2,0.8-0.2,1.3c0,0.5,0.1,1,0.2,1.4c0.1,0.5,0.3,0.9,0.6,1.3
		c0.3,0.4,0.6,0.7,1,0.9s0.9,0.3,1.5,0.3c0.3,0,0.6-0.1,0.9-0.2c0.3-0.1,0.5-0.3,0.7-0.5c-0.4-0.3-0.7-0.6-1-1
		c-0.3-0.4-0.5-0.8-0.7-1.2c-0.2-0.4-0.4-0.9-0.5-1.3c-0.1-0.4-0.2-0.8-0.2-1.2c0-0.6,0.1-1.1,0.4-1.5c0.3-0.4,0.7-0.6,1.3-0.6
		c0.5,0,1,0.1,1.4,0.3c0.4,0.2,0.7,0.5,1,0.9c0.3,0.4,0.5,0.8,0.6,1.3c0.1,0.5,0.2,1,0.2,1.5c0,0.8-0.2,1.6-0.5,2.5h0.2
		c0.3,0,0.6-0.1,0.9-0.3c0.3-0.2,0.6-0.4,0.9-0.8c0.1-0.1,0.2-0.3,0.3-0.4s0.2-0.3,0.3-0.5c0,0,0.1,0,0.1,0c0.1,0,0.2,0.1,0.3,0.3
		C192.2,16.1,192.2,16.3,192.2,16.5z M187.8,15.4c0-0.3,0-0.6-0.1-0.9c-0.1-0.3-0.2-0.6-0.3-0.8s-0.3-0.4-0.5-0.6
		c-0.2-0.1-0.4-0.2-0.6-0.2c-0.4,0-0.6,0.2-0.6,0.7c0,0.6,0.2,1.2,0.5,1.8s0.7,1.1,1.3,1.6C187.8,16.4,187.8,15.9,187.8,15.4z"/>
</g>
</svg>
